<?xml version="1.0" standalone="no"?>
<!DOCTYPE svg PUBLIC "-//W3C//DTD SVG 20010904//EN"
 "http://www.w3.org/TR/2001/REC-SVG-20010904/DTD/svg10.dtd">
<svg version="1.0" xmlns="http://www.w3.org/2000/svg"
 width="736.000000pt" height="789.000000pt" viewBox="0 0 736.000000 789.000000"
 preserveAspectRatio="xMidYMid meet">

<g transform="translate(0.000000,789.000000) scale(0.100000,-0.100000)"
fill="#000000" stroke="none">
<path d="M3990 7580 c-18 -18 -27 -40 -16 -40 3 0 14 14 26 30 24 34 19 39
-10 10z"/>
<path d="M4109 7545 c-20 -7 -51 -21 -70 -31 -19 -10 -37 -19 -41 -20 -5 -1
-9 -3 -10 -4 -2 -1 -19 -3 -39 -4 -25 -2 -51 -15 -84 -41 -47 -39 -47 -39 -63
-18 -16 19 -25 20 -107 15 -49 -2 -102 -4 -117 -4 -16 1 -28 -3 -28 -8 0 -6
-10 -10 -22 -10 -13 0 -36 -7 -52 -15 -15 -8 -35 -15 -43 -15 -19 0 -113 -52
-113 -62 0 -5 -6 -8 -12 -8 -14 -1 -68 -45 -68 -56 0 -4 -14 -20 -32 -36 l-31
-28 -33 25 c-18 14 -37 25 -42 25 -5 0 -15 7 -22 15 -7 9 -27 25 -43 37 l-29
21 7 -23 c7 -22 5 -23 -32 -18 -45 6 -90 -19 -80 -44 4 -12 -10 -20 -59 -33
-36 -10 -68 -15 -71 -11 -7 7 -26 -28 -43 -78 -10 -32 -9 -40 16 -82 l27 -46
-29 6 c-84 18 -94 17 -111 -19 -20 -42 -29 -46 -128 -51 -61 -3 -99 -12 -166
-39 -48 -19 -97 -35 -108 -35 -12 0 -19 -4 -16 -10 5 -8 -12 -18 -89 -52 -17
-7 -17 -6 -5 9 13 16 12 16 -16 1 -16 -9 -42 -21 -58 -29 -15 -7 -78 -62 -140
-122 -61 -60 -127 -121 -144 -134 -18 -14 -30 -29 -27 -34 3 -5 -2 -9 -11 -9
-9 0 -23 -13 -32 -28 -9 -16 -37 -40 -61 -53 -25 -13 -50 -28 -56 -34 -20 -19
-81 -60 -108 -74 -46 -24 -65 -52 -102 -155 -60 -165 -67 -201 -50 -249 21
-59 17 -401 -5 -380 -20 20 -25 8 -7 -19 8 -12 22 -66 31 -118 9 -52 22 -106
29 -120 34 -67 46 -98 52 -130 4 -19 15 -51 24 -70 26 -50 110 -246 110 -255
0 -20 63 -138 106 -198 27 -38 58 -86 69 -108 11 -22 24 -37 27 -33 4 3 18 -6
31 -20 13 -14 30 -26 36 -26 29 0 58 -31 56 -60 -2 -33 48 -89 61 -68 4 6 -4
20 -17 31 -16 13 -20 21 -11 24 18 7 14 33 -5 34 -11 0 -13 2 -5 6 7 3 23 -2
35 -10 12 -7 38 -19 59 -26 20 -7 39 -18 42 -26 3 -8 10 -15 17 -15 6 0 19
-10 29 -23 16 -19 88 -59 232 -127 21 -10 38 -14 40 -8 2 5 20 0 41 -12 20
-12 44 -20 52 -16 8 3 17 1 19 -3 3 -5 40 -11 82 -15 76 -7 104 -20 104 -49 0
-9 5 -17 11 -19 6 -2 12 -22 13 -45 4 -44 29 -92 41 -74 3 6 3 17 0 24 -4 6 5
0 18 -15 l25 -27 5 27 c3 15 2 32 -3 37 -4 6 -13 37 -20 70 -6 33 -16 76 -21
96 -12 47 -12 49 5 43 8 -3 18 -18 21 -34 3 -16 12 -33 19 -39 8 -6 21 -33 31
-59 37 -98 55 -100 61 -9 2 33 -1 59 -11 73 -12 19 -12 24 0 34 10 8 19 8 34
1 14 -8 21 -8 25 2 3 9 8 7 18 -5 13 -15 15 -15 26 3 17 27 16 29 -23 29 -28
0 -35 4 -35 20 0 25 28 37 106 43 63 5 63 5 171 48 39 16 82 29 95 29 26 1 58
22 58 39 0 6 5 11 11 11 5 0 7 5 4 10 -8 13 -35 -6 -35 -24 0 -6 -19 -11 -45
-12 -31 -1 -50 -7 -58 -18 -7 -10 -28 -18 -49 -19 -20 -1 -34 -6 -30 -11 3 -5
-6 -6 -19 -3 -14 4 -45 0 -71 -8 -61 -18 -145 -22 -160 -7 -6 6 -8 15 -4 19 6
6 88 19 146 24 25 2 94 22 106 31 6 5 18 6 27 2 9 -3 31 1 49 9 18 9 44 19 58
22 28 8 60 33 60 47 0 5 -9 4 -19 -2 -11 -5 -59 -10 -107 -10 -73 0 -85 2 -75
14 7 8 35 17 63 21 35 5 58 15 74 32 13 14 28 22 33 18 7 -3 8 0 5 9 -3 9 -11
16 -18 16 -6 0 9 19 34 40 44 39 44 40 15 34 -16 -4 -38 -11 -47 -16 -12 -5
-18 -5 -18 2 0 5 -5 10 -10 10 -6 0 -10 -6 -8 -14 2 -8 -1 -14 -7 -13 -5 1 -9
6 -7 10 1 5 -3 7 -10 4 -7 -2 -12 -10 -10 -17 4 -17 -30 -41 -48 -34 -8 4 -61
6 -116 5 -83 -2 -102 0 -107 13 -4 9 -13 13 -22 10 -21 -9 -37 36 -18 54 7 7
11 18 7 23 -3 5 -7 26 -9 46 -2 20 -8 39 -14 43 -7 4 -9 15 -5 25 6 14 4 17
-9 12 -14 -5 -15 -3 -5 13 8 13 16 16 22 10 15 -15 26 -12 26 5 0 8 7 15 15
15 17 0 19 -12 5 -26 -7 -7 8 -11 50 -11 65 0 61 -5 64 72 1 34 32 82 58 90 9
3 20 14 23 24 5 17 32 31 63 31 6 0 12 -9 12 -20 0 -11 -5 -20 -11 -20 -14 0
-39 -63 -39 -100 0 -35 4 -37 32 -10 12 11 29 20 37 20 23 -1 54 -27 46 -39
-10 -17 11 -13 25 4 8 9 8 15 2 15 -6 0 -13 26 -17 58 -3 31 -8 69 -10 84 -4
24 -1 28 31 34 32 6 38 3 72 -34 52 -56 110 -179 129 -270 23 -116 23 -153 -1
-181 -18 -21 -18 -23 -3 -18 13 5 17 1 17 -16 0 -16 -3 -18 -9 -8 -14 22 -23
-6 -10 -31 23 -42 -3 -272 -34 -303 -9 -8 -21 -32 -27 -52 -7 -21 -20 -44 -29
-52 -12 -10 -13 -15 -3 -18 6 -3 12 -11 12 -19 0 -8 5 -14 10 -14 6 0 10 -5
10 -11 0 -8 -5 -8 -15 1 -12 10 -16 9 -21 -4 -10 -26 -37 -20 -31 7 6 22 6 22
-9 2 -18 -24 -29 -64 -20 -73 4 -3 11 0 16 8 6 8 10 11 11 5 2 -28 27 -121 28
-106 1 11 4 11 16 1 29 -24 42 6 51 120 8 102 44 266 56 255 4 -4 4 2 1 14 -4
15 -1 21 11 21 14 0 16 8 12 47 -4 26 -1 51 5 59 6 7 11 34 12 60 3 64 28 81
61 41 14 -17 28 -26 38 -22 8 3 25 -3 39 -13 18 -15 21 -23 12 -33 -18 -22 2
-113 33 -154 18 -25 28 -50 30 -81 1 -25 10 -57 19 -71 13 -19 16 -37 11 -72
-4 -25 -9 -85 -12 -133 -6 -88 -4 -95 30 -89 5 1 6 -8 2 -21 -3 -13 -6 -49 -6
-81 0 -36 -4 -56 -10 -52 -6 3 -10 -4 -10 -17 0 -13 -6 -32 -13 -43 -7 -11
-19 -38 -26 -60 -7 -22 -26 -67 -41 -100 -36 -76 -43 -115 -21 -107 9 3 19 10
22 15 9 13 29 -1 29 -21 1 -11 6 -7 16 11 9 16 18 27 21 24 2 -3 -7 -22 -20
-44 -32 -50 -44 -98 -23 -90 18 7 32 -31 23 -63 -3 -11 -1 -20 4 -20 5 0 10
15 10 33 2 30 2 30 6 5 6 -41 23 -34 24 10 1 48 12 85 25 89 7 2 10 -6 7 -22
-3 -14 -9 -25 -13 -25 -4 0 -8 -22 -9 -50 0 -27 4 -50 9 -50 6 0 10 5 10 11 0
5 5 7 10 4 6 -4 8 -10 5 -15 -3 -5 0 -12 6 -16 9 -5 11 7 6 47 -6 51 -3 72 23
181 10 41 14 46 26 34 14 -15 14 -16 -12 -268 -4 -36 -2 -58 4 -58 11 0 14 16
37 190 16 120 32 180 47 180 8 0 3 -62 -14 -175 -19 -131 -21 -140 -34 -160
-8 -11 -14 -34 -14 -51 0 -17 -7 -45 -15 -60 l-15 -29 0 45 c0 33 -3 41 -11
33 -19 -19 -20 -82 -1 -93 11 -6 13 -13 7 -17 -9 -7 -11 -28 -6 -58 3 -19 24
15 27 44 2 17 13 50 23 73 20 43 64 176 77 233 7 28 8 26 14 -21 9 -63 15 -74
41 -74 11 0 18 -4 15 -9 -3 -5 -14 -7 -25 -4 -16 4 -18 -1 -17 -54 1 -32 8
-68 14 -80 7 -12 12 -32 12 -44 0 -74 129 -307 205 -371 37 -31 28 -9 -20 48
-44 50 -72 95 -89 140 -6 15 -4 15 11 3 10 -8 25 -23 33 -34 43 -59 290 -299
298 -290 2 2 -12 18 -30 37 -18 18 -49 55 -68 81 -19 26 -45 59 -57 73 -13 14
-23 28 -23 32 0 4 -20 34 -45 67 -25 33 -45 64 -45 68 0 5 -9 20 -20 34 -11
14 -20 34 -20 43 0 10 -12 24 -27 31 -29 15 -31 18 -43 83 -5 22 -14 45 -22
50 -22 16 -31 63 -14 69 9 4 16 -4 20 -25 4 -23 10 -29 22 -24 21 8 44 -11 44
-37 0 -25 22 -87 30 -87 4 0 4 44 2 98 -2 53 -4 104 -4 112 -1 8 2 40 5 71 16
149 31 189 67 189 11 0 20 -5 20 -10 0 -6 12 -16 26 -22 20 -9 24 -17 19 -35
-8 -34 18 -19 33 19 11 31 12 31 32 13 11 -10 19 -24 16 -30 -2 -7 0 -18 4
-26 7 -11 13 -9 28 9 25 29 56 28 80 -2 18 -23 43 -29 58 -13 4 4 16 7 27 7
18 0 17 -2 -4 -20 l-24 -19 25 -1 c14 0 37 -12 53 -29 24 -26 27 -36 27 -102
0 -40 3 -69 7 -65 4 3 6 30 5 59 -2 48 -1 51 13 33 8 -11 15 -26 15 -33 0 -31
20 -10 21 22 2 57 3 60 23 63 14 3 17 0 13 -13 -5 -12 -2 -16 16 -13 20 3 23
-3 30 -57 14 -95 11 -116 -28 -185 -48 -87 -67 -130 -62 -143 2 -6 13 9 26 32
12 24 39 68 59 99 49 74 49 74 58 97 6 17 9 15 15 -15 4 -20 6 15 4 83 -2 64
0 117 3 117 4 0 21 -14 39 -30 18 -17 35 -30 38 -30 10 0 39 -33 95 -107 30
-40 58 -73 62 -73 4 0 20 -19 37 -42 16 -24 47 -62 68 -85 21 -23 46 -52 56
-64 47 -62 -2 43 -60 129 -24 35 -43 69 -43 75 -1 13 -122 147 -134 147 -4 0
-14 7 -23 15 -11 12 -12 19 -3 30 6 7 10 22 8 32 -3 16 4 18 52 17 30 -1 65
-4 77 -8 18 -6 22 -3 25 21 2 22 9 29 31 31 15 2 27 7 27 12 0 12 -34 22 -53
15 -11 -5 -17 2 -22 26 -8 34 4 49 38 49 10 0 20 7 23 15 3 8 21 17 40 21 19
3 32 10 29 14 -3 4 9 13 26 20 20 9 27 16 20 23 -7 7 -15 6 -26 -3 -8 -7 -19
-9 -23 -5 -4 4 1 12 12 19 10 6 30 20 45 32 17 13 38 20 59 18 17 -1 32 2 32
8 0 5 -9 7 -19 3 -29 -9 -34 10 -6 23 16 8 25 8 25 1 0 -5 14 6 30 24 17 19
30 39 30 45 0 10 20 15 98 26 13 2 22 -2 22 -10 0 -27 -34 -100 -62 -132 -15
-18 -28 -38 -28 -44 0 -6 10 2 22 18 12 16 25 31 29 34 11 9 49 89 49 105 0 8
7 15 15 15 8 0 15 7 15 16 0 25 24 43 43 32 12 -6 17 -5 17 3 0 6 8 18 18 25
12 10 12 12 2 9 -17 -6 -19 23 -6 118 7 45 12 57 26 57 10 0 23 -7 30 -15 7
-8 9 -15 5 -15 -4 0 -2 -7 5 -15 18 -22 30 -18 30 10 l0 25 76 -5 c43 -3 80
-8 85 -10 11 -7 40 6 34 15 -2 4 -48 13 -100 20 -52 7 -98 17 -102 23 -3 6
-12 37 -19 70 -13 63 -9 78 28 120 19 22 97 40 114 26 15 -13 104 -22 104 -11
0 13 -31 37 -67 52 -18 7 -33 16 -33 21 0 5 -8 9 -17 10 -12 1 -9 4 7 8 14 4
25 12 25 18 0 6 54 58 120 115 148 127 172 151 167 168 -3 9 1 11 12 7 9 -4
16 -1 16 6 0 7 14 27 30 45 17 18 30 39 30 47 0 9 7 11 22 7 14 -3 19 -2 14 7
-4 6 0 18 8 27 9 8 16 12 16 7 0 -4 5 0 11 10 6 9 7 26 4 37 -4 11 -2 20 4 20
6 0 11 5 11 11 0 6 13 28 29 48 60 76 120 260 125 385 1 31 8 62 14 68 7 7 12
17 12 24 0 7 6 15 13 17 9 4 9 6 -1 6 -8 1 -16 -8 -19 -19 -5 -20 -23 -28 -23
-10 0 11 -39 14 -41 3 -1 -5 -3 -30 -5 -57 -4 -57 -10 -66 -28 -41 -9 13 -10
30 -5 59 5 23 8 44 9 48 0 4 7 5 15 2 10 -4 15 0 16 12 0 11 3 14 6 7 2 -7 8
-13 12 -13 11 0 35 150 26 158 -4 4 -17 -5 -30 -20 -31 -36 -45 -35 -45 2 0
17 -4 30 -10 30 -5 0 -10 -7 -10 -16 0 -14 -3 -14 -15 -4 -18 15 -21 110 -3
128 30 30 94 1 101 -46 4 -27 4 -27 6 4 0 16 -4 35 -11 42 -6 6 -8 15 -5 19 4
4 19 -4 33 -18 33 -33 51 -136 37 -209 -6 -27 -9 -50 -7 -50 13 0 34 71 42
141 l10 84 -53 48 c-40 35 -52 52 -48 67 5 19 4 19 -23 5 -16 -8 -42 -15 -57
-15 -23 0 -28 4 -25 21 2 12 10 26 18 30 50 26 86 39 111 39 31 0 46 14 28 26
-8 5 -9 3 -4 -5 5 -9 0 -12 -16 -9 -26 3 -39 28 -15 28 9 0 16 5 16 11 0 7
-11 8 -29 4 -17 -3 -32 -2 -36 4 -6 10 -2 13 28 15 6 1 29 17 50 37 33 32 36
39 28 65 -5 16 -12 50 -16 77 -3 26 -11 47 -17 47 -6 0 -8 -12 -5 -29 4 -21 0
-37 -13 -54 -11 -14 -20 -36 -20 -50 0 -59 -61 -86 -129 -56 -35 16 -36 19
-17 74 18 53 10 100 -20 120 -13 8 -24 24 -24 34 0 19 -14 34 -41 44 -24 8
-19 -26 6 -38 29 -15 30 -43 3 -64 -24 -20 -43 -18 -34 4 2 7 -2 16 -10 19
-15 6 -20 36 -5 36 15 0 7 43 -9 48 -12 4 -12 2 -3 -8 19 -21 -2 -48 -47 -60
-23 -6 -38 -15 -35 -20 3 -5 1 -11 -5 -15 -5 -3 -10 -3 -11 2 0 4 -2 27 -4 51
-2 31 1 45 11 49 20 7 18 23 -3 23 -12 0 -14 3 -6 11 8 8 18 6 37 -6 25 -17
26 -17 26 4 0 11 5 21 10 21 6 0 10 -5 10 -10 0 -7 6 -7 19 0 11 5 27 7 35 4
12 -4 16 0 16 15 0 13 -7 21 -17 22 -15 0 -15 2 2 9 11 5 15 9 8 9 -6 1 -25
13 -42 27 -29 24 -32 25 -58 10 -42 -23 -103 -46 -124 -46 -10 0 -22 -6 -26
-14 -4 -7 -15 -16 -23 -20 -8 -3 -1 -4 15 0 17 3 43 12 59 20 39 19 67 18 60
-1 -4 -8 -17 -15 -30 -15 -13 0 -28 -8 -33 -19 -6 -10 -26 -26 -46 -35 -19 -9
-47 -28 -61 -41 -15 -14 -30 -25 -35 -25 -4 0 -11 -10 -15 -22 -3 -12 -29 -44
-56 -71 -27 -27 -47 -51 -45 -53 4 -4 27 3 87 29 14 6 33 18 42 25 15 13 20
13 34 1 14 -11 18 -11 21 -1 3 6 11 12 19 12 11 0 14 8 11 29 -4 23 -2 28 9
24 8 -3 13 -11 11 -17 -2 -6 0 -19 5 -29 5 -10 5 -16 0 -15 -5 2 -25 -19 -44
-47 -19 -27 -67 -77 -106 -110 -41 -35 -71 -68 -71 -80 -1 -22 -56 -60 -83
-56 -9 1 -22 -7 -30 -17 -14 -20 -77 -96 -116 -141 -13 -14 -32 -43 -42 -63
-24 -45 -46 -62 -35 -27 4 13 16 36 26 51 11 14 19 31 19 37 0 6 5 11 11 11 8
0 8 4 0 14 -10 12 -8 13 10 9 19 -5 20 -3 12 12 -6 10 -8 26 -6 36 4 13 0 19
-10 19 -9 0 -19 5 -23 12 -5 7 -2 9 8 6 11 -5 19 4 28 33 9 27 16 36 21 27 5
-7 6 -21 3 -30 -3 -10 -2 -18 2 -18 12 0 44 42 44 58 0 13 -3 12 -13 -2 -13
-18 -14 -18 -21 0 -4 11 -3 20 3 22 6 2 11 12 11 23 0 11 9 30 20 42 11 12 18
28 15 35 -4 10 0 12 10 8 10 -3 13 -2 9 5 -3 6 4 21 16 34 15 16 20 30 15 42
-6 15 -15 9 -61 -42 -30 -33 -54 -63 -54 -67 0 -16 -69 -97 -72 -86 -7 19 -24
1 -46 -44 -11 -24 -30 -52 -42 -63 l-22 -20 16 30 c19 37 30 68 28 78 -1 4 2
7 8 7 5 0 10 5 10 10 0 6 14 40 30 75 17 35 30 68 30 72 0 4 14 23 30 42 32
36 33 56 2 28 -10 -10 -22 -14 -25 -10 -4 3 -7 2 -7 -4 0 -5 -10 -21 -22 -35
-13 -13 -43 -62 -67 -109 -25 -46 -55 -100 -68 -119 -13 -19 -23 -40 -23 -46
0 -6 -6 -17 -14 -23 -10 -9 -15 -8 -20 4 -3 8 0 15 7 15 10 0 46 89 61 151 3
9 10 27 17 40 7 13 15 29 18 36 37 71 161 223 183 223 9 0 24 10 33 23 8 12
16 20 18 18 1 -2 21 6 44 18 23 11 49 21 56 21 8 0 35 9 61 21 25 11 51 17 56
14 5 -3 21 2 36 12 15 9 34 18 42 20 14 1 40 13 104 44 10 5 25 9 33 9 9 0 13
5 10 10 -3 6 1 10 10 10 12 0 15 5 10 18 -4 9 -8 22 -9 27 -5 28 -23 45 -40
39 -10 -4 -13 -10 -8 -13 9 -6 16 -39 13 -69 -1 -7 -5 -10 -11 -7 -5 3 -10 2
-10 -2 0 -5 -15 -10 -32 -11 -18 -2 -37 -7 -42 -12 -12 -12 -113 -13 -120 -2
-3 5 -50 8 -106 7 -114 -2 -128 6 -116 70 7 33 6 34 -31 37 -21 2 -45 0 -53
-4 -8 -3 -55 -24 -104 -45 -49 -21 -102 -50 -118 -65 -16 -15 -31 -27 -33 -27
-3 -1 -9 -1 -14 -1 -8 0 -53 -43 -161 -155 -57 -59 -80 -73 -80 -48 0 10 9 29
20 43 11 14 20 29 20 34 0 14 69 96 127 151 29 28 53 49 53 48 0 -2 18 9 40
23 22 15 40 30 40 34 0 4 9 10 20 13 11 3 20 13 20 24 -1 28 -25 54 -44 47
-11 -4 -16 -1 -16 10 0 10 9 16 23 16 17 0 19 2 8 9 -9 6 -22 6 -32 0 -22 -12
-29 -11 -29 1 0 10 52 40 70 40 5 0 10 -8 10 -18 0 -10 11 -28 25 -40 14 -13
23 -27 20 -32 -4 -6 1 -7 11 -3 13 5 16 3 11 -10 -4 -11 -2 -14 8 -10 8 3 12
10 9 15 -4 6 5 8 22 6 27 -3 29 0 32 35 2 21 -1 37 -7 37 -6 0 -11 14 -11 30
0 17 4 30 9 30 5 0 -3 13 -19 28 -27 27 -60 38 -60 20 0 -4 -4 -8 -10 -8 -11
0 -43 -24 -75 -57 -23 -23 -52 -32 -39 -12 3 6 7 69 8 141 3 129 2 131 -24
162 -15 17 -34 45 -43 62 -14 27 -127 134 -127 120 0 -4 23 -28 50 -54 28 -27
47 -51 44 -55 -4 -3 -15 5 -26 18 -11 14 -26 25 -34 25 -18 0 -18 0 12 -54 31
-56 47 -68 39 -29 -5 23 -4 25 5 10 6 -9 9 -26 5 -36 -3 -11 -1 -22 5 -26 5
-3 10 -14 10 -23 0 -9 9 -28 19 -41 17 -23 18 -27 4 -48 l-16 -24 -28 27 c-16
15 -29 32 -29 37 0 5 -17 37 -37 71 -21 33 -38 66 -38 71 0 6 -5 17 -10 25 -5
8 -10 25 -11 39 -2 14 -12 32 -22 41 -11 8 -24 23 -29 33 -8 16 -10 15 -11
-11 0 -17 6 -36 14 -43 16 -13 19 -29 4 -29 -5 0 -24 19 -41 43 -16 23 -48 56
-69 73 -22 17 -37 34 -33 38 3 3 -4 6 -17 6 -13 0 -21 3 -17 6 3 4 -1 20 -9
36 -12 23 -20 28 -36 22 -18 -5 -20 -3 -16 20 5 23 3 26 -16 20 -20 -6 -20 -5
2 11 12 9 28 13 35 9 6 -4 -1 7 -17 24 -29 31 -56 42 -56 22 0 -5 -7 -7 -15
-4 -8 4 -15 10 -15 16 0 17 -28 38 -50 38 -12 0 -19 4 -16 8 2 4 1 14 -5 22
-6 11 -9 6 -9 -17 0 -33 14 -51 25 -33 7 11 55 -33 55 -50 0 -4 6 -11 13 -13
6 -3 -1 -4 -17 -2 -20 1 -32 9 -38 25 -11 30 -16 24 -20 -25 -2 -22 -7 -46
-11 -52 -4 -6 0 -13 8 -17 8 -3 15 -15 15 -26 0 -13 4 -18 11 -14 13 7 58 -14
76 -36 11 -13 14 -13 24 0 9 13 10 12 5 -2 -3 -10 2 -25 11 -34 12 -12 18 -13
21 -5 3 8 10 5 19 -8 8 -12 19 -19 24 -15 5 3 14 -8 20 -25 6 -17 20 -36 31
-42 13 -7 17 -16 13 -30 -4 -10 -2 -19 2 -19 9 0 63 -109 63 -126 0 -5 7 -22
15 -38 8 -16 18 -54 21 -85 4 -31 11 -64 16 -74 5 -9 6 -22 3 -28 -8 -13 -36
22 -76 97 -17 32 -40 66 -50 76 -10 9 -19 22 -19 30 0 16 -62 120 -102 171
-16 20 -27 37 -23 37 3 0 1 9 -5 20 -13 24 -33 26 -50 5 -7 -8 -20 -15 -29
-14 -9 0 -11 3 -4 5 13 6 6 34 -9 34 -5 0 -9 -15 -7 -32 4 -63 -1 -88 -16 -88
-12 0 -15 14 -16 63 -1 34 -1 76 0 93 2 20 -3 33 -13 37 -9 4 -12 13 -9 26 3
12 1 21 -6 21 -8 0 -7 9 3 28 8 15 12 41 10 57 -10 60 -27 115 -36 115 -5 0
-8 8 -6 17 2 9 -13 34 -32 56 -19 21 -35 47 -36 56 -2 25 -23 61 -37 61 -7 0
-8 -3 -2 -8 6 -4 16 -17 23 -29 19 -35 -4 -27 -25 7 -18 32 -28 37 -39 19 -3
-6 6 -24 22 -40 15 -16 25 -31 22 -35 -6 -6 -58 24 -69 40 -4 5 -12 5 -18 1
-9 -5 -8 -13 3 -30 15 -23 71 -185 95 -275 17 -65 2 -367 -19 -380 -6 -4 -10
-20 -8 -36 4 -56 -2 -98 -12 -88 -14 14 -14 135 -1 164 10 21 7 36 -15 95 -14
39 -29 83 -31 98 -3 15 -19 42 -36 58 -23 23 -27 33 -17 39 10 6 7 20 -14 63
-14 31 -26 59 -26 62 0 13 -92 199 -117 236 -21 32 -28 37 -44 28 -20 -10 -26
0 -10 17 6 5 -1 21 -19 41 -16 18 -30 27 -32 21 -4 -12 -48 -1 -48 12 0 5 10
11 23 13 18 4 19 4 2 5 -11 0 -36 -5 -56 -13z m161 -121 c0 -22 -2 -25 -15
-14 -12 10 -13 16 -4 26 16 20 19 18 19 -12z m-499 -24 c5 0 1 -15 -8 -34 -19
-41 -59 -60 -105 -53 -18 3 -48 8 -66 11 -41 7 -104 -19 -125 -52 -5 -7 -13
-10 -18 -6 -15 9 30 52 82 78 45 23 92 25 105 5 3 -5 11 -9 17 -9 7 0 1 9 -13
20 -14 10 -22 22 -18 25 9 9 109 24 126 19 8 -2 18 -4 23 -4z m460 -83 c-16
-16 -26 0 -10 19 9 11 15 12 17 4 2 -6 -1 -17 -7 -23z m29 -12 c0 -8 -7 -15
-15 -15 -16 0 -20 12 -8 23 11 12 23 8 23 -8z m-700 -9 c-6 -8 -18 -12 -26 -9
-23 9 -16 23 12 23 22 0 24 -2 14 -14z m100 -23 c0 -13 -3 -13 -15 -3 -8 7
-12 16 -9 21 8 13 24 1 24 -18z m-50 -33 c0 -5 -4 -10 -10 -10 -5 0 -10 5 -10
10 0 6 5 10 10 10 6 0 10 -4 10 -10z m265 -8 c-3 -3 -11 0 -18 7 -9 10 -8 11
6 5 10 -3 15 -9 12 -12z m415 -2 c0 -5 -4 -10 -10 -10 -5 0 -10 5 -10 10 0 6
5 10 10 10 6 0 10 -4 10 -10z m-460 -10 c0 -5 -2 -10 -4 -10 -3 0 -8 5 -11 10
-3 6 -1 10 4 10 6 0 11 -4 11 -10z m-166 -26 c4 -12 2 -12 -14 -4 -11 6 -20
15 -20 20 0 14 28 1 34 -16z m236 -30 c0 -3 -7 -1 -15 6 -8 7 -15 17 -15 22 0
5 7 3 15 -6 8 -8 15 -18 15 -22z m35 26 c3 -5 -1 -10 -9 -10 -9 0 -16 5 -16
10 0 6 4 10 9 10 6 0 13 -4 16 -10z m75 0 c0 -5 -2 -10 -4 -10 -3 0 -8 5 -11
10 -3 6 -1 10 4 10 6 0 11 -4 11 -10z m311 -22 c8 -15 8 -18 0 -14 -6 4 -16
16 -22 28 -8 15 -8 18 0 14 6 -4 16 -16 22 -28z m-1236 2 c3 -5 -1 -10 -10
-10 -9 0 -13 5 -10 10 3 6 8 10 10 10 2 0 7 -4 10 -10z m52 -20 c3 -10 2 -11
-4 -4 -4 6 -15 14 -23 17 -11 5 -9 6 4 4 11 -1 21 -9 23 -17z m651 4 c13 -9
31 -13 42 -9 15 5 24 -1 38 -24 9 -17 21 -31 25 -31 5 0 5 6 1 12 -5 7 12 -2
36 -20 42 -31 45 -32 48 -12 2 11 8 18 13 15 5 -4 9 5 9 19 0 16 -6 26 -15 26
-17 0 -20 -17 -4 -22 7 -2 3 -10 -7 -18 -11 -8 -16 -11 -12 -6 3 4 -7 21 -23
37 -33 33 -36 41 -14 33 8 -4 15 -10 15 -15 0 -5 7 -9 15 -9 18 0 19 12 3 28
-21 21 0 13 51 -19 31 -19 48 -35 45 -44 -3 -7 3 -16 14 -19 19 -6 72 -59 72
-73 0 -5 16 -19 35 -33 44 -31 205 -214 225 -255 8 -16 20 -37 27 -45 7 -9 19
-35 27 -57 13 -38 13 -42 -1 -45 -15 -3 -15 -5 1 -20 19 -19 17 -22 -8 -12 -9
3 -16 10 -16 15 0 37 -198 251 -262 283 l-48 24 0 -24 c0 -14 6 -27 14 -30 7
-3 28 -27 45 -54 17 -27 54 -70 81 -96 27 -26 52 -56 56 -66 3 -10 19 -33 35
-50 33 -36 36 -48 14 -48 -8 0 -15 5 -15 10 0 6 -7 10 -16 8 -10 -2 -19 3 -22
11 -3 8 0 11 7 7 17 -11 13 15 -6 36 -22 24 -36 23 -21 -2 14 -22 3 -39 -14
-22 -7 7 -23 12 -37 12 -13 0 -21 3 -18 7 12 11 -14 33 -39 33 -18 0 -24 6
-24 21 0 11 -4 18 -9 15 -7 -5 -54 24 -71 44 -9 11 -60 10 -60 -1 0 -5 4 -8 9
-4 16 9 72 -49 66 -68 -4 -10 1 -20 16 -28 28 -15 108 -100 109 -115 0 -7 7
-15 16 -18 9 -4 15 -9 12 -11 -3 -3 -34 12 -69 33 -35 21 -100 56 -144 77 -44
22 -81 43 -83 47 -2 5 -9 8 -16 8 -6 0 -27 11 -47 24 -57 39 -148 86 -166 86
-9 0 -14 3 -10 6 13 13 -24 36 -49 31 -29 -5 -94 12 -94 25 0 4 -7 8 -15 8
-15 0 -55 19 -65 31 -3 3 -30 20 -60 37 -62 36 -78 48 -100 76 -13 17 -9 16
30 -5 25 -12 50 -23 55 -23 6 -1 19 -6 31 -13 11 -7 43 -12 70 -11 28 0 68 -8
90 -17 21 -9 53 -16 69 -17 17 0 52 -6 79 -14 27 -7 52 -12 56 -9 4 2 21 -1
38 -7 23 -9 35 -9 43 -1 7 7 23 8 46 3 33 -8 34 -7 18 10 -11 12 -30 18 -58
18 -54 -1 -89 10 -80 25 5 9 3 9 -8 2 -23 -16 -99 -4 -99 16 0 5 -6 9 -14 9
-8 0 -16 5 -18 10 -2 6 -13 12 -26 13 -27 2 -106 63 -93 72 6 3 24 -1 41 -10
27 -14 45 -5 20 10 -5 3 -15 15 -20 25 -10 18 -8 19 17 10 l28 -11 -30 25
c-68 54 -79 65 -67 66 7 0 30 -9 52 -20 48 -24 59 -25 77 -2 14 16 14 16 9 -1
-6 -17 14 -47 30 -47 4 0 16 -7 26 -17 11 -9 18 -11 18 -5 0 7 -4 12 -10 12
-5 0 -10 8 -10 17 0 9 -3 13 -7 10 -10 -10 -33 13 -33 34 0 25 16 32 40 17 13
-8 19 -20 16 -31 -3 -12 1 -17 11 -15 9 2 18 -3 21 -11 3 -10 0 -12 -14 -7
-16 6 -15 4 4 -14 12 -12 26 -19 31 -15 5 3 12 -1 14 -7 3 -8 6 -6 6 5 1 9 -5
17 -11 18 -10 0 -10 2 0 6 20 8 14 40 -12 57 -14 8 -37 28 -52 43 -16 16 -30
27 -33 25 -3 -2 -7 1 -9 6 -2 6 7 12 20 15 13 2 25 5 28 6 3 0 16 -6 28 -15z
m321 -34 c28 -22 51 -45 51 -50 0 -15 -12 -12 -35 10 -11 10 -36 33 -55 49
-52 45 -20 37 39 -9z m-1253 -47 c-4 -4 -11 -1 -16 7 -16 25 -11 35 7 17 9 -9
13 -20 9 -24z m834 27 c-19 -13 -30 -13 -30 0 0 6 10 10 23 10 18 0 19 -2 7
-10z m1005 -63 c5 -28 7 -56 6 -62 -1 -5 3 -36 9 -70 6 -33 12 -67 13 -75 2
-8 6 -20 10 -26 4 -7 -1 -18 -10 -25 -14 -12 -15 -11 -9 7 4 14 2 23 -7 27 -9
3 -17 28 -21 61 -4 31 -12 56 -17 56 -5 0 -9 11 -9 25 0 14 4 25 9 25 5 0 3
17 -5 38 -14 41 -18 75 -7 85 13 14 31 -15 38 -66z m-1778 14 c17 13 17 13 3
-4 -12 -17 -12 -20 3 -29 10 -5 15 -14 11 -19 -4 -6 -20 3 -40 22 -18 18 -30
37 -27 42 3 6 12 2 19 -8 12 -16 16 -16 31 -4z m1263 -43 c0 -6 -7 -5 -15 2
-8 7 -15 17 -15 22 0 6 7 5 15 -2 8 -7 15 -17 15 -22z m-1434 -53 c15 -13 26
-27 23 -30 -3 -3 -27 -2 -52 1 -41 6 -47 10 -47 30 0 33 38 32 76 -1z m254 -5
c0 -5 -4 -10 -10 -10 -5 0 -10 5 -10 10 0 6 5 10 10 10 6 0 10 -4 10 -10z
m554 -16 c4 -10 1 -14 -6 -12 -15 5 -23 28 -10 28 5 0 13 -7 16 -16z m1108
-21 c6 -22 -1 -43 -13 -43 -5 0 -9 14 -9 30 0 33 15 41 22 13z m-1632 -18 c7
-8 8 -15 2 -15 -5 0 -15 7 -22 15 -7 8 -8 15 -2 15 5 0 15 -7 22 -15z m40 -26
c0 -6 -4 -7 -10 -4 -5 3 -10 11 -10 16 0 6 5 7 10 4 6 -3 10 -11 10 -16z m95
4 c13 -13 18 -14 25 -3 5 8 15 10 26 6 16 -6 14 -9 -10 -21 -16 -8 -32 -15
-36 -15 -14 0 -40 31 -35 41 8 12 11 12 30 -8z m1495 -45 c0 -16 -3 -19 -11
-11 -6 6 -8 16 -5 22 11 17 16 13 16 -11z m-1390 -7 c0 -5 -7 -11 -14 -14 -10
-4 -13 -1 -9 9 6 15 23 19 23 5z m1149 -36 c0 -14 -2 -16 -6 -5 -3 8 -10 18
-16 21 -5 4 -6 12 -2 19 10 16 25 -6 24 -35z m-1229 26 c0 -5 14 -14 30 -21
27 -11 42 -30 23 -30 -14 1 -78 59 -65 60 6 0 12 -4 12 -9z m155 -71 c28 -14
54 -31 58 -37 4 -7 14 -13 22 -13 8 0 20 -9 28 -20 8 -11 38 -32 68 -47 35
-18 48 -28 37 -31 -16 -3 -106 42 -118 59 -3 4 -41 26 -85 48 -44 23 -80 46
-79 51 3 31 5 34 12 25 4 -6 30 -22 57 -35z m1182 8 c-3 -8 -6 -5 -6 6 -1 11
2 17 5 13 3 -3 4 -12 1 -19z m-899 -49 c2 -5 10 -9 18 -9 17 0 81 -27 166 -71
31 -16 63 -29 71 -29 16 0 104 -45 127 -65 8 -7 29 -17 45 -22 17 -6 29 -16
27 -23 -2 -8 4 -11 18 -7 11 3 20 2 20 -2 0 -3 17 -15 37 -26 33 -18 128 -104
161 -147 11 -14 10 -18 -9 -28 -16 -9 -20 -9 -14 0 5 8 1 11 -11 9 -20 -4 -84
30 -84 43 0 4 -7 8 -15 8 -9 0 -25 9 -37 20 -22 20 -38 26 -38 13 1 -12 48
-63 58 -63 5 0 15 -7 22 -15 7 -8 8 -15 3 -15 -15 0 -63 25 -63 33 0 4 -35 24
-79 45 -69 33 -80 36 -89 23 -9 -14 -11 -13 -11 5 -1 19 -50 49 -136 83 -29
12 32 -39 66 -54 24 -11 36 -22 31 -27 -6 -6 -26 -1 -50 11 -23 12 -47 21 -53
21 -7 0 -20 6 -28 14 -9 8 -40 19 -70 25 -46 10 -104 39 -121 61 -3 4 -18 10
-34 14 -16 4 -42 21 -59 37 -17 17 -41 35 -55 40 -14 5 -22 12 -20 15 8 7 98
-38 92 -47 -2 -4 5 -5 17 -2 12 3 24 1 28 -4 13 -20 73 -43 89 -34 13 7 12 10
-7 16 -11 3 -19 10 -16 15 7 11 42 1 56 -16 6 -8 18 -14 26 -14 23 0 -1 25
-38 40 -21 9 -27 16 -20 23 8 8 15 7 23 -1 7 -7 20 -12 29 -12 10 0 19 -3 21
-8 2 -4 31 -22 66 -40 61 -33 96 -35 71 -6 -13 16 -198 114 -213 113 -5 0 -12
4 -15 9 -3 5 -26 22 -51 37 -44 27 -60 42 -60 57 0 10 104 -31 108 -43z m-118
-34 c0 -8 -7 -15 -15 -15 -16 0 -20 12 -8 23 11 12 23 8 23 -8z m76 -40 c12
-8 24 -12 27 -8 4 3 9 -1 13 -10 3 -9 -1 -23 -9 -31 -13 -14 -17 -14 -29 1
-11 15 -11 16 5 10 9 -3 17 -2 17 3 0 6 -6 10 -13 10 -8 0 -22 9 -32 20 -21
23 -9 26 21 5z m-1526 -69 c0 -8 4 -16 10 -18 6 -2 6 -9 0 -18 -11 -18 -16
-13 -25 23 -5 17 -3 27 4 27 6 0 11 -6 11 -14z m2527 -1 c8 -22 -6 -33 -17
-15 -13 20 -12 30 0 30 6 0 13 -7 17 -15z m593 5 c0 -5 -2 -10 -4 -10 -3 0 -8
5 -11 10 -3 6 -1 10 4 10 6 0 11 -4 11 -10z m-2485 -41 c15 -14 35 -10 35 6 0
16 35 21 44 6 11 -16 56 -19 65 -3 7 12 12 12 35 -3 15 -10 46 -20 69 -22 47
-4 97 -21 97 -33 0 -5 9 -6 21 -3 17 5 19 2 13 -21 -7 -29 9 -36 24 -10 7 13
17 15 38 10 16 -4 39 -8 51 -9 12 -1 32 -12 45 -24 17 -16 31 -20 52 -16 19 4
27 2 23 -4 -4 -6 3 -13 14 -16 12 -3 19 -10 16 -14 -6 -9 27 -26 83 -41 60
-17 183 -63 210 -78 24 -14 22 -15 -25 -8 -27 3 -63 13 -80 21 -64 34 -64 33
-70 12 -4 -13 -11 -17 -18 -12 -22 16 -87 34 -97 28 -5 -3 -10 -1 -10 4 0 6
-5 11 -11 11 -10 0 -121 48 -161 71 -10 5 -37 9 -60 8 -42 0 -42 0 -20 -16 12
-8 22 -23 22 -33 0 -19 37 -34 42 -18 2 6 21 1 43 -11 22 -11 49 -21 61 -21
12 0 34 -7 50 -15 21 -10 31 -11 41 -3 10 8 17 8 25 0 7 -7 20 -12 31 -12 10
0 15 -4 12 -10 -8 -12 30 -13 53 -1 20 10 85 -6 77 -19 -3 -5 -21 -4 -41 2
-47 13 -55 4 -12 -15 38 -17 123 -23 114 -8 -4 5 -2 12 3 16 6 3 8 -4 6 -15
-4 -19 0 -21 28 -18 20 2 32 -2 33 -9 1 -7 2 -17 3 -23 1 -12 28 -13 33 -1 2
4 13 12 26 15 16 6 22 3 22 -8 0 -9 4 -16 10 -16 5 0 7 7 4 15 -4 10 0 15 10
15 9 0 19 -6 22 -14 5 -12 9 -12 32 0 15 8 37 14 50 14 13 0 21 4 18 9 -4 5 3
7 15 4 12 -4 25 0 29 7 7 11 11 11 24 0 9 -7 20 -10 23 -6 4 4 2 11 -5 15 -7
4 10 7 38 7 30 -1 52 -6 55 -13 2 -7 17 -13 32 -14 26 -1 25 -2 -7 -9 -20 -5
-42 -4 -53 2 -10 5 -26 7 -35 3 -29 -11 7 -24 87 -31 57 -6 75 -11 86 -28 13
-17 15 -18 15 -3 0 9 5 17 10 17 6 0 10 -7 10 -15 0 -8 8 -15 18 -15 9 0 31
-7 47 -16 17 -9 42 -23 56 -30 14 -8 39 -26 55 -41 16 -16 41 -34 57 -40 15
-7 27 -17 27 -23 0 -14 176 -13 216 2 33 12 88 2 136 -23 10 -5 28 -9 42 -9
13 0 29 -7 36 -15 7 -8 21 -15 31 -15 9 0 24 -7 33 -15 8 -8 19 -15 25 -15 15
0 35 -42 33 -70 -2 -23 -1 -23 7 -5 5 11 10 14 10 8 1 -7 -8 -27 -18 -44 l-20
-32 -11 45 c-22 85 -129 132 -290 128 -52 -1 -100 -6 -105 -10 -6 -5 -30 -11
-53 -14 -56 -7 -112 -27 -112 -41 0 -6 5 -16 12 -23 9 -9 5 -12 -19 -12 -17 0
-33 -4 -35 -9 -1 -5 -29 -12 -60 -16 -50 -6 -58 -5 -58 9 0 9 8 16 19 16 19 0
35 25 26 41 -3 4 -20 -1 -38 -11 -18 -11 -39 -23 -47 -27 -8 -3 -32 -17 -52
-30 -21 -13 -43 -23 -49 -23 -6 0 -21 -10 -33 -23 -26 -29 -77 -65 -136 -96
-25 -14 -47 -27 -50 -30 -8 -10 -112 -58 -150 -69 -19 -6 -51 -11 -70 -10 -19
0 -62 -8 -95 -18 -46 -13 -100 -17 -225 -18 -188 -1 -305 16 -321 46 -5 10
-16 18 -23 18 -16 0 -29 27 -20 41 3 5 1 9 -5 9 -5 0 -12 -8 -16 -18 -5 -17
-15 -14 -108 32 -56 28 -104 54 -107 58 -3 3 -18 10 -33 13 -15 4 -27 11 -27
15 0 5 -20 16 -44 25 -44 17 -64 39 -46 50 11 7 46 -10 75 -35 11 -10 31 -21
45 -25 14 -4 42 -19 62 -31 21 -13 40 -24 43 -24 4 0 31 -11 60 -25 30 -13 61
-22 69 -19 9 3 30 -1 47 -10 18 -9 38 -16 46 -16 8 0 11 -5 8 -10 -4 -7 -13
-6 -26 1 -19 9 -19 9 -10 -10 14 -26 24 -28 184 -45 48 -5 39 11 -11 19 -86
12 -92 15 -91 44 0 17 3 21 7 11 4 -8 16 -16 27 -18 11 -1 52 -7 90 -13 58 -8
144 -6 250 5 11 1 19 7 18 12 -1 7 8 9 23 6 18 -3 23 -1 19 10 -9 23 54 38 83
20 20 -13 22 -13 22 4 0 14 3 16 9 6 6 -10 17 -11 54 -1 26 6 44 15 41 20 -3
5 16 6 41 2 40 -5 48 -3 62 16 10 15 19 19 25 13 14 -14 48 -3 41 14 -3 8 1
14 8 14 12 0 89 32 119 50 8 5 38 21 65 36 28 14 57 32 66 40 8 8 23 14 32 14
9 0 21 9 27 20 7 12 20 20 33 19 46 -4 77 1 75 13 -2 7 3 13 10 14 6 1 17 2
22 3 6 0 10 7 10 15 0 9 13 16 33 19 17 3 5 4 -28 4 -41 -1 -71 5 -95 18 -19
10 -50 20 -69 22 -18 1 -42 9 -52 18 -10 10 -23 14 -28 10 -6 -3 -17 -3 -23 2
-7 4 -41 8 -75 10 -35 1 -71 7 -81 12 -13 7 -32 7 -57 0 -24 -7 -41 -7 -47 -1
-6 6 -25 1 -51 -14 -40 -22 -65 -26 -149 -25 -21 0 -38 -3 -38 -8 0 -10 -80
-32 -92 -25 -4 3 -8 0 -8 -6 0 -6 -6 -10 -12 -9 -7 1 -20 -1 -28 -4 -18 -8
-114 -26 -118 -23 -1 2 0 10 3 18 4 10 31 19 82 26 75 10 115 33 71 40 -12 2
-24 -1 -26 -7 -3 -8 -8 -9 -16 -2 -14 12 -127 -1 -246 -28 -101 -24 -360 -38
-360 -20 0 8 -4 8 -14 0 -11 -10 -21 -9 -42 2 -27 14 -25 14 37 17 68 2 111 6
119 10 3 1 19 1 36 0 16 0 75 8 130 19 101 20 155 27 257 36 72 6 181 23 229
36 21 5 63 10 93 11 31 1 59 6 62 11 8 14 -343 -2 -408 -19 -31 -8 -66 -14
-78 -14 -25 0 -29 20 -3 20 9 1 2 7 -17 15 -18 8 -37 13 -41 10 -4 -2 -38 -7
-76 -10 -45 -3 -73 -10 -80 -20 -6 -8 -24 -14 -40 -14 -23 1 -24 3 -7 6 12 2
27 10 33 18 9 11 0 16 -47 26 -55 12 -113 34 -113 44 0 10 97 -8 127 -23 29
-15 34 -15 50 0 12 10 25 13 38 8 11 -4 26 -3 33 3 7 5 24 11 38 11 14 1 28 7
32 13 5 7 40 13 82 15 72 3 74 4 45 16 -16 8 -65 14 -107 15 -43 1 -78 5 -78
10 0 10 -28 9 -32 -2 -3 -10 -27 -14 -81 -12 -29 1 -39 6 -46 24 -5 12 -12 21
-17 20 -13 -3 -78 37 -71 43 3 3 14 1 24 -4 11 -6 25 -7 32 -3 10 6 9 10 -4
15 -14 5 -15 9 -5 22 18 21 0 37 -43 38 -29 1 -33 4 -29 21 3 11 11 24 19 28
15 9 18 47 3 47 -5 0 -10 -5 -10 -10 0 -13 -47 -3 -78 17 -13 8 -30 12 -38 9
-8 -3 -34 1 -57 9 -23 8 -48 15 -54 15 -7 0 -27 9 -45 20 l-33 21 30 -7 c17
-4 34 -11 40 -15z m-575 -48 c0 -6 -4 -13 -10 -16 -5 -3 -10 1 -10 9 0 9 5 16
10 16 6 0 10 -4 10 -9z m2365 -10 c-3 -6 -11 -8 -17 -5 -6 4 -5 9 3 15 16 10
23 4 14 -10z m15 -42 c7 -11 9 -27 6 -35 -3 -8 -1 -14 4 -14 6 0 10 -7 10 -15
0 -8 -6 -15 -13 -15 -17 0 -52 74 -43 89 11 17 24 13 36 -10z m-2506 -44 c-4
-16 -3 -17 5 -5 9 13 12 13 20 1 5 -7 14 -10 20 -7 6 4 11 5 11 1 0 -3 -9 -9
-21 -13 l-20 -8 20 -26 c21 -26 21 -26 1 -21 -14 4 -20 0 -20 -10 0 -8 -5 -17
-12 -19 -8 -3 -5 -13 9 -32 12 -15 19 -34 16 -42 -5 -13 -7 -13 -14 -2 -6 9
-9 8 -9 -7 0 -12 -4 -25 -10 -31 -6 -6 -6 -30 0 -68 5 -32 7 -63 4 -67 -3 -5
-1 -9 4 -9 5 0 9 -26 8 -57 -2 -32 4 -79 12 -105 8 -26 11 -55 8 -64 -6 -16 5
-61 30 -119 7 -16 11 -33 8 -37 -8 -13 -35 4 -30 19 6 14 -13 53 -25 53 -3 0
-4 -24 -2 -52 3 -39 2 -49 -6 -38 -6 8 -11 27 -11 41 0 14 -3 29 -7 33 -10 10
-41 169 -36 184 3 6 9 12 15 12 5 0 6 5 2 11 -4 6 -9 37 -11 68 -2 31 -6 61
-8 68 -2 7 0 15 6 19 7 4 7 10 0 18 -6 7 -10 26 -10 42 1 16 -2 58 -5 94 -15
173 -16 161 6 149 11 -6 17 -17 14 -25 -3 -8 -1 -14 4 -14 18 0 21 21 6 52
-20 39 -21 36 9 34 20 -1 24 -5 19 -21z m3115 -37 c1 -29 -20 -119 -29 -128
-3 -3 -14 -25 -25 -50 -11 -25 -25 -48 -31 -52 -6 -4 -15 -24 -19 -45 -5 -26
-9 -33 -15 -23 -5 8 -6 18 -3 23 3 5 -5 18 -17 29 -12 11 -19 26 -16 33 3 8 1
15 -5 17 -12 4 0 68 13 68 6 0 12 -9 15 -20 10 -37 48 -18 76 39 9 19 17 42
17 52 0 10 5 41 12 69 9 39 14 48 19 34 4 -11 8 -31 8 -46z m-224 10 c3 -18 7
-55 8 -83 1 -27 6 -53 12 -57 6 -5 6 -11 -1 -18 -9 -9 -16 -6 -28 11 -11 17
-16 46 -16 101 0 79 14 105 25 46z m-1935 -12 c0 -17 -14 -29 -23 -20 -8 8 3
34 14 34 5 0 9 -6 9 -14z m180 -7 c0 -6 -4 -7 -10 -4 -5 3 -10 11 -10 16 0 6
5 7 10 4 6 -3 10 -11 10 -16z m-780 1 c0 -5 -2 -10 -4 -10 -3 0 -8 5 -11 10
-3 6 -1 10 4 10 6 0 11 -4 11 -10z m3128 -8 c2 -7 -3 -12 -12 -12 -9 0 -16 7
-16 16 0 17 22 14 28 -4z m-3843 -2 c-3 -5 -11 -10 -16 -10 -6 0 -7 5 -4 10 3
6 11 10 16 10 6 0 7 -4 4 -10z m2895 6 c0 -3 -4 -8 -10 -11 -5 -3 -10 -1 -10
4 0 6 5 11 10 11 6 0 10 -2 10 -4z m-1665 -26 c3 -5 2 -10 -4 -10 -5 0 -13 5
-16 10 -3 6 -2 10 4 10 5 0 13 -4 16 -10z m40 -10 c-3 -5 -12 -10 -18 -10 -7
0 -6 4 3 10 19 12 23 12 15 0z m1603 -8 c6 -18 -15 -14 -22 4 -4 10 -1 14 6
12 6 -2 14 -10 16 -16z m-2331 -9 c12 -3 43 -25 70 -49 49 -45 81 -60 47 -23
-19 22 -19 22 4 10 16 -9 21 -18 17 -32 -4 -11 -2 -19 4 -19 6 0 11 -9 11 -20
0 -11 5 -20 10 -20 6 0 10 5 10 10 0 25 30 7 41 -25 7 -19 16 -35 21 -35 4 0
21 -14 38 -30 25 -24 28 -31 16 -36 -17 -7 -49 19 -38 31 4 5 1 5 -6 1 -7 -4
-30 8 -57 29 -24 20 -49 34 -54 30 -7 -3 -8 0 -5 9 3 9 2 16 -3 16 -16 0 -100
86 -108 109 -3 12 -13 21 -21 21 -8 0 -25 10 -37 21 -20 20 -21 21 -2 14 11
-4 30 -10 42 -12z m2438 -69 c32 -47 63 -91 69 -97 6 -7 17 -20 25 -30 22 -28
-25 -22 -50 7 -12 13 -32 27 -46 31 -21 5 -24 10 -19 33 3 15 3 21 0 14 -8
-17 -24 -5 -18 13 4 8 -3 31 -15 50 -22 37 -27 65 -13 65 5 0 35 -39 67 -86z
m-2346 40 c3 -16 1 -17 -13 -5 -19 16 -21 34 -3 29 6 -3 14 -13 16 -24z m116
16 c3 -5 2 -10 -4 -10 -5 0 -13 5 -16 10 -3 6 -2 10 4 10 5 0 13 -4 16 -10z
m555 -6 c0 -8 -5 -12 -10 -9 -6 4 -8 11 -5 16 9 14 15 11 15 -7z m1300 6 c0
-5 -7 -7 -15 -4 -8 4 -15 8 -15 10 0 2 7 4 15 4 8 0 15 -4 15 -10z m-663 -46
c-3 -3 -12 -4 -19 -1 -8 3 -5 6 6 6 11 1 17 -2 13 -5z m844 -51 c13 -16 12
-17 -3 -4 -10 7 -18 15 -18 17 0 8 8 3 21 -13z m294 7 c3 -5 1 -10 -4 -10 -6
0 -11 5 -11 10 0 6 2 10 4 10 3 0 8 -4 11 -10z m1548 3 c-7 -2 -13 -11 -13
-19 0 -8 -5 -14 -10 -14 -7 0 -7 6 0 20 6 11 16 20 23 19 9 0 9 -2 0 -6z
m-293 -20 c-1 -21 -56 -53 -91 -53 -21 0 -6 21 29 39 39 21 62 26 62 14z
m-3926 -45 c9 -61 17 -222 10 -216 -3 3 -11 46 -19 94 -8 49 -17 106 -21 127
-5 29 -4 37 9 37 10 0 17 -14 21 -42z m2883 -10 c-3 -7 -5 -2 -5 12 0 14 2 19
5 13 2 -7 2 -19 0 -25z m-2830 0 c-3 -8 -6 -5 -6 6 -1 11 2 17 5 13 3 -3 4
-12 1 -19z m4163 2 c0 -5 -5 -10 -11 -10 -5 0 -7 5 -4 10 3 6 8 10 11 10 2 0
4 -4 4 -10z m-1201 -26 c-6 -7 -15 -11 -21 -8 -5 3 -4 12 3 20 6 7 15 11 21 8
5 -3 4 -12 -3 -20z m-1919 -34 c0 -5 -4 -10 -10 -10 -5 0 -10 5 -10 10 0 6 5
10 10 10 6 0 10 -4 10 -10z m-1260 -80 c-5 -9 -5 -21 0 -26 8 -9 13 -37 11
-64 -3 -37 -31 48 -31 94 1 46 2 49 15 32 10 -13 11 -24 5 -36z m-185 30 c3
-5 1 -10 -4 -10 -6 0 -11 5 -11 10 0 6 2 10 4 10 3 0 8 -4 11 -10z m664 -11
c11 -19 11 -21 -4 -15 -9 3 -19 6 -21 6 -2 0 -4 7 -4 15 0 21 13 19 29 -6z
m1701 2 c0 -20 -19 -31 -53 -31 -17 0 -19 3 -8 9 7 5 11 13 7 19 -7 11 9 20
37 21 10 1 17 -6 17 -18z m827 2 c36 -17 56 -34 49 -41 -2 -2 -38 4 -80 12
-41 9 -79 16 -83 16 -4 0 1 7 11 15 26 20 57 19 103 -2z m-2790 -15 c-3 -8 -6
-5 -6 6 -1 11 2 17 5 13 3 -3 4 -12 1 -19z m2893 2 c13 -8 13 -10 -2 -10 -9 0
-20 5 -23 10 -8 13 5 13 25 0z m-1067 -11 c-8 -8 -16 -8 -30 0 -16 9 -14 10
12 11 21 0 26 -3 18 -11z m2267 1 c13 -8 13 -10 -2 -10 -9 0 -18 -5 -20 -12
-5 -15 -28 -1 -28 18 0 16 28 18 50 4z m-4803 -22 c-3 -8 -6 -5 -6 6 -1 11 2
17 5 13 3 -3 4 -12 1 -19z m320 0 c-3 -8 -6 -5 -6 6 -1 11 2 17 5 13 3 -3 4
-12 1 -19z m2003 8 c0 -15 -17 -21 -92 -31 -26 -4 -53 -13 -59 -21 -14 -17 -6
-17 40 -4 39 11 71 12 151 6 30 -2 60 1 67 6 7 5 18 6 24 2 7 -4 28 -9 48 -11
64 -6 196 -35 205 -44 6 -6 6 -13 0 -19 -8 -8 -26 -7 -60 1 -27 7 -123 14
-214 16 -91 1 -169 3 -175 4 -37 2 -225 -13 -250 -21 -54 -18 -117 -22 -110
-8 4 7 0 5 -8 -4 -16 -20 -37 -24 -37 -8 0 6 6 10 14 10 8 0 16 5 18 11 2 5
15 12 29 13 32 4 89 28 89 38 0 5 14 8 30 8 17 0 30 5 30 10 0 6 7 10 16 10
16 0 105 26 139 40 34 15 105 12 105 -4z m-1589 -18 c11 -21 11 -22 -4 -9 -10
7 -17 17 -17 22 0 15 9 10 21 -13z m634 4 c-3 -3 -11 0 -18 7 -9 10 -8 11 6 5
10 -3 15 -9 12 -12z m1345 -2 c0 -13 -11 -13 -30 0 -12 8 -11 10 8 10 12 0 22
-4 22 -10z m2327 -10 c-1 -18 -10 -25 -21 -17 -2 1 -13 -7 -25 -17 -29 -26
-35 -15 -14 23 21 36 63 44 60 11z m-3218 -6 c2 -2 -17 -4 -43 -4 -27 0 -45 4
-41 9 5 9 73 4 84 -5z m2774 -6 c-13 -6 -23 -15 -23 -20 0 -4 -5 -8 -10 -8 -7
0 -7 6 0 20 6 11 20 20 33 19 l22 0 -22 -11z m-3723 -39 c0 -14 -17 -10 -23 5
-4 10 -1 13 9 9 7 -3 14 -9 14 -14z m-175 -83 c6 -22 5 -28 -6 -24 -10 3 -15
23 -16 64 -1 49 0 53 6 24 5 -19 12 -48 16 -64z m4234 14 c-24 -50 -39 -63
-39 -35 0 17 17 50 39 78 25 31 25 8 0 -43z m-4481 -45 c0 -11 -6 3 -13 30 -6
28 -9 55 -6 60 6 11 20 -56 19 -90z m-61 53 c-3 -8 -6 -5 -6 6 -1 11 2 17 5
13 3 -3 4 -12 1 -19z m148 -11 c0 -12 -6 -28 -13 -36 -7 -7 -10 -23 -7 -35 5
-17 4 -18 -4 -4 -12 18 -11 68 1 68 4 0 8 10 8 22 0 12 3 18 8 14 4 -4 7 -18
7 -29z m1298 8 c-6 -17 -25 -15 -31 3 -2 7 5 12 17 12 14 0 19 -5 14 -15z
m412 4 c4 3 57 6 119 7 84 2 113 -1 113 -10 0 -9 -28 -13 -101 -14 -110 -1
-229 -9 -344 -22 -40 -4 -81 -6 -92 -3 -33 9 -23 26 12 21 17 -3 50 -1 72 4
22 5 60 11 85 14 24 2 46 6 48 8 2 2 21 0 43 -4 22 -4 42 -5 45 -1z m-1505
-28 c0 -11 6 -22 13 -24 9 -4 8 -8 -3 -16 -11 -8 -17 -3 -27 21 -16 38 -16 38
2 38 8 0 15 -9 15 -19z m55 -46 l6 -50 -15 40 c-18 46 -21 84 -6 69 5 -5 12
-32 15 -59z m433 46 c3 -8 -1 -12 -9 -9 -7 2 -15 10 -17 17 -3 8 1 12 9 9 7
-2 15 -10 17 -17z m-824 1 c2 -4 8 -36 12 -71 5 -48 4 -62 -5 -57 -6 4 -11 13
-10 19 1 7 -3 25 -9 40 -14 34 -16 77 -3 77 6 0 12 -4 15 -8z m-57 -34 c-3 -7
-5 -2 -5 12 0 14 2 19 5 13 2 -7 2 -19 0 -25z m1560 16 c-3 -3 -12 -4 -19 -1
-8 3 -5 6 6 6 11 1 17 -2 13 -5z m513 2 c0 -2 -13 -6 -29 -8 -17 -2 -28 -1
-25 4 5 8 54 12 54 4z m457 -2 c-3 -3 -12 -4 -19 -1 -8 3 -5 6 6 6 11 1 17 -2
13 -5z m309 -3 c-7 -11 -66 -20 -66 -10 0 4 12 10 28 12 15 2 31 5 35 6 5 0 6
-3 3 -8z m-2641 -11 c3 -5 1 -10 -4 -10 -6 0 -11 5 -11 10 0 6 2 10 4 10 3 0
8 -4 11 -10z m995 0 c13 -9 13 -10 0 -10 -8 0 -22 5 -30 10 -13 9 -13 10 0 10
8 0 22 -5 30 -10z m740 6 c0 -6 -156 -54 -204 -62 -55 -10 -38 9 24 26 28 8
56 20 62 27 9 12 118 20 118 9z m-1340 -26 c0 -5 -2 -10 -4 -10 -3 0 -8 5 -11
10 -3 6 -1 10 4 10 6 0 11 -4 11 -10z m2590 0 c0 -5 -5 -10 -11 -10 -5 0 -7 5
-4 10 3 6 8 10 11 10 2 0 4 -4 4 -10z m-2970 -10 c0 -5 -7 -7 -15 -4 -8 4 -15
8 -15 10 0 2 7 4 15 4 8 0 15 -4 15 -10z m1820 0 c0 -5 -4 -10 -10 -10 -5 0
-10 5 -10 10 0 6 5 10 10 10 6 0 10 -4 10 -10z m2494 -30 c-9 -16 -20 -33 -26
-36 -6 -4 -9 -3 -6 2 2 5 10 24 17 41 7 18 17 31 21 28 5 -3 2 -19 -6 -35z
m-3914 10 c0 -5 -2 -10 -4 -10 -3 0 -8 5 -11 10 -3 6 -1 10 4 10 6 0 11 -4 11
-10z m1365 3 c-58 -13 -109 -51 -72 -54 15 -1 -43 -17 -105 -28 -37 -6 -48 -5
-48 5 0 7 -3 19 -6 28 -5 12 0 16 22 16 28 -1 28 -1 9 -16 -19 -15 -18 -16 20
-9 22 3 45 12 50 18 22 27 59 42 103 43 26 1 38 0 27 -3z m93 -28 c-2 -3 -19
-6 -37 -7 -18 -1 -35 -6 -37 -10 -7 -11 -24 -10 -24 2 0 13 94 40 99 28 1 -5
1 -11 -1 -13z m-2364 -9 c-3 -9 -10 -13 -16 -10 -5 3 -4 12 3 20 15 18 22 13
13 -10z m3456 -7 c0 -6 -8 -13 -17 -16 -10 -4 -23 -13 -29 -21 -5 -8 -21 -13
-35 -13 -13 1 -43 2 -67 2 -49 2 -51 16 -6 38 52 26 154 32 154 10z m-1437 -6
c-7 -2 -19 -2 -25 0 -7 3 -2 5 12 5 14 0 19 -2 13 -5z m-293 -29 c0 -2 -9 0
-20 6 -11 6 -20 13 -20 16 0 2 9 0 20 -6 11 -6 20 -13 20 -16z m255 16 c17 -7
17 -9 3 -9 -10 -1 -18 -5 -18 -11 0 -5 -5 -10 -11 -10 -6 0 -9 6 -6 14 4 9 -1
17 -11 19 -13 4 -13 5 3 5 11 0 29 -3 40 -8z m-1585 -42 c7 -22 18 -51 26 -64
8 -12 11 -25 6 -28 -7 -4 -72 110 -72 128 0 3 7 6 15 6 8 0 19 -17 25 -42z
m397 3 c17 -16 12 -24 -10 -16 -8 4 -17 15 -20 25 -6 21 5 38 12 18 2 -7 10
-19 18 -27z m1989 24 c-16 -17 -36 -20 -36 -6 0 10 17 19 38 20 10 1 10 -3 -2
-14z m2014 5 c0 -5 -5 -10 -11 -10 -5 0 -7 5 -4 10 3 6 8 10 11 10 2 0 4 -4 4
-10z m-4306 -16 c3 -8 2 -12 -4 -9 -6 3 -10 10 -10 16 0 14 7 11 14 -7z m186
-6 c0 -19 -2 -20 -10 -8 -13 19 -13 30 0 30 6 0 10 -10 10 -22z m2777 5 c-9
-9 -19 -14 -23 -11 -10 10 6 28 24 28 15 0 15 -1 -1 -17z m-122 -23 c3 -5 -1
-10 -9 -10 -9 0 -16 5 -16 10 0 6 4 10 9 10 6 0 13 -4 16 -10z m140 -36 c-14
-26 -25 -53 -25 -60 0 -14 -71 -38 -107 -36 -12 1 -25 -3 -28 -8 -8 -14 -38
-13 -53 2 -9 9 -3 16 26 30 l37 18 -45 -5 c-25 -3 -64 -12 -88 -20 -23 -8 -68
-17 -100 -20 l-57 -6 55 21 c30 12 70 28 88 36 18 7 39 14 46 14 8 0 13 8 12
17 -1 12 7 19 24 21 20 2 22 1 10 -7 -13 -9 -12 -11 5 -11 11 0 29 6 40 14 12
8 37 12 63 10 30 -2 52 2 75 16 46 29 49 25 22 -26z m-2885 20 c0 -8 -4 -12
-10 -9 -5 3 -10 10 -10 16 0 5 5 9 10 9 6 0 10 -7 10 -16z m2240 -14 c0 -5 -5
-10 -11 -10 -5 0 -7 5 -4 10 3 6 8 10 11 10 2 0 4 -4 4 -10z m284 -9 c10 -16
-19 -29 -79 -34 -33 -3 -76 -8 -97 -11 -26 -4 -38 -1 -42 9 -4 11 2 15 22 15
16 0 32 4 38 9 17 17 149 27 158 12z m-2606 -87 c8 -27 7 -34 -3 -34 -7 0 -19
22 -26 50 -7 28 -16 50 -21 50 -4 0 -8 6 -8 13 1 20 46 -42 58 -79z m2369 60
c-3 -3 -12 -4 -19 -1 -8 3 -5 6 6 6 11 1 17 -2 13 -5z m753 -25 c0 -16 -32
-59 -44 -59 -2 0 -6 12 -9 26 -3 18 2 33 15 46 21 21 38 16 38 -13z m-3015 11
c3 -5 1 -10 -4 -10 -6 0 -11 5 -11 10 0 6 2 10 4 10 3 0 8 -4 11 -10z m3089
-4 c11 4 16 1 16 -11 0 -11 -5 -15 -15 -11 -13 5 -13 2 1 -18 8 -14 22 -27 30
-30 8 -3 14 -15 14 -28 l0 -22 -20 22 c-12 12 -29 22 -39 22 -22 0 -31 19 -31
62 0 25 3 28 14 19 7 -6 21 -9 30 -5z m-3036 -33 c8 -27 9 -40 1 -48 -8 -7
-10 -6 -7 5 3 8 -3 25 -14 37 -11 12 -17 26 -13 32 11 20 21 12 33 -26z m-207
-3 c5 0 9 -8 9 -17 -1 -16 -2 -16 -15 1 -8 11 -14 27 -14 35 1 13 2 12 6 -1 2
-10 9 -18 14 -18z m2169 20 c0 -5 -4 -10 -10 -10 -5 0 -10 5 -10 10 0 6 5 10
10 10 6 0 10 -4 10 -10z m1710 -11 c0 -6 -11 -20 -25 -31 -13 -10 -29 -37 -35
-58 -6 -22 -15 -42 -20 -45 -6 -4 -8 -11 -5 -16 4 -5 3 -18 0 -30 -5 -15 -10
-17 -19 -10 -16 14 -55 -29 -76 -84 -9 -22 -23 -41 -32 -43 -15 -3 -15 1 1 45
60 162 144 281 199 283 6 0 12 -5 12 -11z m490 -15 c0 -8 -5 -12 -10 -9 -6 4
-8 11 -5 16 9 14 15 11 15 -7z m-4710 -72 c0 -30 -18 2 -25 43 l-6 40 16 -34
c8 -18 15 -40 15 -49z m2897 62 c-3 -3 -12 -4 -19 -1 -8 3 -5 6 6 6 11 1 17
-2 13 -5z m223 -4 c0 -5 -4 -10 -10 -10 -5 0 -10 5 -10 10 0 6 5 10 10 10 6 0
10 -4 10 -10z m176 -28 c-7 -22 -86 -63 -156 -82 -34 -9 -45 -9 -51 1 -8 14 9
31 22 23 4 -2 35 12 68 30 34 19 61 31 61 25 0 -5 5 -9 11 -9 6 0 9 6 6 13 -5
15 25 38 36 27 5 -4 6 -17 3 -28z m-226 18 c0 -5 -10 -10 -22 -10 -19 0 -20 2
-8 10 19 13 30 13 30 0z m-730 -4 c0 -3 -14 -14 -31 -26 -36 -27 -54 -17 -19
10 23 18 50 26 50 16z m1008 -7 c-2 -6 -8 -10 -13 -10 -5 0 -11 4 -13 10 -2 6
4 11 13 11 9 0 15 -5 13 -11z m1385 -92 c11 -118 11 -126 0 -184 -9 -47 -8
-52 11 -62 12 -5 15 -10 9 -10 -7 -1 -13 -11 -14 -23 0 -15 -3 -18 -6 -8 -4 8
-13 21 -21 29 -13 13 -14 11 -8 -15 4 -19 1 -36 -8 -49 -14 -18 -14 -16 -9 30
13 104 9 208 -10 247 -20 40 -17 84 10 127 23 36 37 11 46 -82z m-1740 76 c-6
-16 -5 -17 12 -3 11 9 16 10 11 3 -4 -8 -2 -13 4 -13 6 0 8 -5 5 -10 -4 -6
-10 -8 -15 -5 -4 2 -19 -5 -34 -16 -14 -11 -26 -16 -26 -11 0 6 6 13 13 15 6
3 -2 6 -19 6 -50 1 -49 14 3 32 26 10 49 18 50 18 1 1 -1 -7 -4 -16z m97 2 c0
-9 -9 -15 -22 -14 -17 1 -19 2 -5 6 9 2 17 9 17 14 0 5 2 9 5 9 3 0 5 -7 5
-15z m-2710 -5 c0 -5 -4 -10 -10 -10 -5 0 -10 5 -10 10 0 6 5 10 10 10 6 0 10
-4 10 -10z m52 -27 c10 -18 18 -48 17 -65 0 -18 -3 -26 -6 -18 -3 8 -9 17 -13
20 -9 6 -40 78 -40 91 0 19 25 2 42 -28z m3865 21 c2 -5 -6 -10 -17 -10 -20 0
-25 7 -13 20 9 8 26 3 30 -10z m-2097 -9 c0 -8 -9 -15 -19 -15 -11 0 -22 -4
-25 -9 -8 -12 -88 -51 -104 -51 -7 0 -15 -7 -18 -15 -6 -15 -40 -20 -67 -9
-33 12 61 76 128 87 17 3 41 10 55 15 36 15 50 14 50 -3z m99 -57 c-30 -23
-56 -45 -59 -49 -6 -7 -58 -36 -82 -45 -9 -3 -18 -14 -21 -25 -3 -11 -14 -19
-27 -19 -17 0 -20 3 -12 13 5 6 12 21 14 32 2 11 8 20 13 20 6 0 33 16 60 35
120 83 210 113 114 38z m1988 12 c-7 -32 10 -52 24 -29 4 8 14 14 21 15 7 0
21 5 32 9 12 5 21 3 27 -6 9 -15 -35 -69 -58 -69 -7 0 -13 -7 -13 -15 0 -18
-12 -19 -27 -4 -15 15 -35 1 -28 -20 3 -11 -8 -35 -30 -64 -19 -25 -35 -55
-35 -66 0 -12 -5 -21 -10 -21 -19 0 -24 33 -8 61 15 25 15 28 -1 32 -14 3 -22
-12 -43 -82 -29 -96 -43 -196 -27 -185 6 3 15 16 20 28 10 23 4 -120 -7 -161
-11 -41 -21 -24 -22 35 0 32 -6 70 -11 86 -13 32 3 156 21 167 6 4 8 15 4 24
-7 18 2 52 38 143 15 39 17 57 10 70 -12 19 -7 45 6 37 5 -3 30 6 56 20 60 32
68 32 61 -5z m173 10 c0 -5 -4 -10 -10 -10 -5 0 -10 5 -10 10 0 6 5 10 10 10
6 0 10 -4 10 -10z m-2246 -21 c-9 -10 -30 -25 -47 -34 -18 -9 -46 -24 -63 -34
-16 -10 -42 -18 -57 -18 -15 0 -35 -7 -45 -15 -20 -18 -83 -40 -91 -33 -7 8
60 54 109 75 14 5 34 15 45 22 11 6 34 18 50 25 17 8 37 18 45 23 8 4 27 8 43
7 26 0 26 -1 11 -18z m2592 -35 c-3 -8 0 -24 7 -36 9 -16 9 -22 0 -25 -7 -3
-13 -9 -13 -15 0 -6 7 -8 15 -4 11 4 15 -2 15 -24 0 -34 -17 -49 -27 -23 -4
10 -16 26 -28 36 -19 16 -19 18 -2 27 20 13 23 36 5 44 -10 5 -10 7 0 12 6 3
12 18 12 32 1 24 2 25 11 9 6 -10 8 -25 5 -33z m-4201 -29 c11 -28 24 -45 35
-45 20 0 45 -26 54 -57 4 -12 18 -37 31 -57 22 -32 22 -37 9 -51 -14 -13 -14
-15 0 -15 13 0 44 -39 38 -48 -1 -1 5 -13 14 -27 14 -21 20 -40 23 -67 1 -4 7
-5 14 -2 7 2 20 -8 29 -23 9 -16 28 -41 43 -58 30 -35 56 -80 50 -87 -3 -3 18
-28 47 -56 76 -73 88 -87 88 -101 0 -12 71 -59 79 -53 2 2 8 -3 13 -12 5 -9
14 -16 20 -16 6 0 3 9 -6 19 -14 15 -15 24 -8 38 10 17 11 17 17 1 9 -22 53
-51 85 -55 14 -1 58 -7 99 -13 41 -5 78 -7 83 -4 5 3 34 8 64 10 54 4 69 -6
37 -25 -10 -5 -14 -13 -10 -17 4 -4 13 -2 19 4 14 14 48 16 48 4 0 -5 -16 -16
-36 -25 -19 -10 -33 -13 -30 -8 3 5 -6 11 -19 14 -14 2 -27 1 -30 -3 -2 -3
-30 -12 -62 -19 -41 -10 -58 -10 -61 -2 -2 6 -14 11 -26 11 -12 0 -27 5 -32
10 -6 6 -30 13 -53 16 -67 9 -135 45 -253 133 -38 28 -45 37 -36 48 10 12 6
13 -18 7 -25 -6 -27 -5 -16 8 10 13 6 22 -23 56 -51 58 -145 190 -145 204 0
13 -51 91 -62 96 -5 2 -8 10 -8 18 0 8 -5 14 -11 14 -6 0 -9 7 -5 15 3 8 1 15
-4 15 -6 0 -10 5 -10 10 0 6 -15 35 -32 66 -62 105 -75 132 -80 157 -8 40 16
22 37 -28z m2342 39 c-3 -3 -12 -4 -19 -1 -8 3 -5 6 6 6 11 1 17 -2 13 -5z
m883 -14 c0 -5 -4 -10 -10 -10 -5 0 -10 5 -10 10 0 6 5 10 10 10 6 0 10 -4 10
-10z m-3345 -10 c3 -5 -1 -10 -10 -10 -9 0 -13 5 -10 10 3 6 8 10 10 10 2 0 7
-4 10 -10z m1879 -1 c-2 -4 -16 -9 -31 -12 -16 -3 -43 -20 -60 -37 -31 -30
-33 -31 -33 -11 0 38 43 71 88 68 22 -1 38 -5 36 -8z m2051 -9 c-3 -5 -11 -10
-16 -10 -6 0 -7 5 -4 10 3 6 11 10 16 10 6 0 7 -4 4 -10z m201 -25 c-3 -9 0
-12 10 -8 9 3 14 -2 16 -18 0 -13 2 -31 3 -39 1 -16 -22 -70 -31 -70 -9 0 2
48 15 64 11 13 11 16 -2 16 -8 0 -22 15 -31 34 -22 47 -21 59 5 46 11 -7 18
-18 15 -25z m-51 15 c3 -5 1 -10 -4 -10 -6 0 -11 5 -11 10 0 6 2 10 4 10 3 0
8 -4 11 -10z m-855 -20 c0 -11 -4 -20 -8 -20 -13 0 -33 -48 -22 -55 4 -3 11 1
13 7 4 10 8 9 17 -2 10 -13 11 -13 7 1 -3 9 0 22 6 29 9 10 9 11 0 6 -16 -9
-17 6 -1 22 18 18 48 15 49 -5 1 -17 2 -17 6 0 6 22 38 18 38 -5 0 -9 8 -25
18 -35 9 -11 15 -22 12 -25 -3 -2 -6 -22 -7 -44 -1 -30 -5 -40 -18 -40 -17 0
-17 17 0 41 11 14 9 64 -1 71 -10 6 -41 -21 -33 -29 8 -8 -20 -89 -33 -94 -7
-3 -13 -13 -13 -23 0 -18 -36 -38 -47 -26 -4 3 -11 2 -17 -3 -23 -17 -45 -20
-39 -5 3 7 9 14 15 14 5 0 6 5 3 10 -4 6 -10 8 -14 5 -5 -2 -6 6 -4 19 3 13 0
27 -6 30 -7 5 -11 -3 -11 -19 0 -32 -14 -61 -35 -69 -13 -4 -14 -2 -5 14 5 10
10 26 10 35 0 15 29 90 50 127 6 10 10 23 10 29 0 13 40 56 53 58 4 1 7 -8 7
-19z m-3195 -4 c12 -8 16 -19 12 -30 -5 -13 -1 -19 13 -23 12 -3 20 -14 20
-26 0 -20 -1 -20 -25 3 -13 13 -28 33 -31 44 -4 12 -14 26 -23 33 -14 11 -14
12 0 13 8 0 24 -6 34 -14z m1715 -40 c0 -8 -16 -28 -35 -45 -39 -34 -65 -42
-37 -12 9 11 26 31 37 45 22 29 35 33 35 12z m785 -36 c3 -5 -1 -10 -9 -10 -9
0 -16 5 -16 10 0 6 4 10 9 10 6 0 13 -4 16 -10z m-2918 -22 c-3 -8 -6 -5 -6 6
-1 11 2 17 5 13 3 -3 4 -12 1 -19z m4183 -6 c0 -5 -7 -17 -16 -28 -14 -17 -15
-17 -10 -1 3 10 6 23 6 28 0 5 5 9 10 9 6 0 10 -4 10 -8z m530 -52 c0 -23 -19
-74 -25 -68 -9 8 7 98 16 92 5 -3 9 -14 9 -24z m-176 -11 c-6 -11 -24 -2 -24
11 0 5 7 7 15 4 8 -4 12 -10 9 -15z m232 -164 c-4 -141 -7 -166 -25 -196 -12
-19 -21 -41 -21 -50 0 -9 -7 -22 -15 -29 -12 -10 -15 -10 -15 3 0 9 4 18 9 22
5 3 12 19 16 35 4 17 10 30 14 30 4 0 8 17 8 38 1 20 5 57 9 81 4 29 3 42 -4
37 -7 -4 -9 18 -6 68 3 47 1 76 -5 81 -15 8 -14 33 2 49 8 10 16 11 25 4 10
-8 11 -49 8 -173z m-4833 80 c19 -33 47 -71 61 -84 14 -14 26 -30 26 -38 0 -7
4 -13 9 -13 5 0 21 -21 36 -46 22 -37 25 -48 14 -55 -14 -8 -33 4 -74 46 -19
19 -50 82 -94 192 -35 86 -29 86 22 -2z m4137 5 c0 -5 -2 -10 -4 -10 -3 0 -8
5 -11 10 -3 6 -1 10 4 10 6 0 11 -4 11 -10z m-20 -32 c0 -5 -4 -8 -10 -8 -5 0
-10 10 -10 23 0 18 2 19 10 7 5 -8 10 -18 10 -22z m287 -10 c-3 -8 -6 -5 -6 6
-1 11 2 17 5 13 3 -3 4 -12 1 -19z m-2769 -16 c2 -7 -3 -12 -12 -12 -9 0 -16
7 -16 16 0 17 22 14 28 -4z m1119 -16 c-7 -19 -107 -27 -107 -8 0 8 16 12 44
12 25 0 48 5 51 11 10 14 19 3 12 -15z m2113 -2 c0 -8 -4 -12 -10 -9 -5 3 -10
13 -10 21 0 8 5 12 10 9 6 -3 10 -13 10 -21z m-2230 -4 c0 -5 -5 -10 -11 -10
-5 0 -7 5 -4 10 3 6 8 10 11 10 2 0 4 -4 4 -10z m1710 -4 c0 -8 -4 -18 -10
-21 -5 -3 -10 3 -10 14 0 12 5 21 10 21 6 0 10 -6 10 -14z m32 -61 c-38 -36
-52 -42 -52 -25 0 6 4 10 10 10 5 0 17 14 26 32 26 50 38 59 46 37 6 -15 -2
-28 -30 -54z m-3508 40 c3 -8 1 -15 -4 -15 -6 0 -10 7 -10 15 0 8 2 15 4 15 2
0 6 -7 10 -15z m1704 -11 c-4 -3 -26 -8 -50 -10 l-43 -5 40 20 c24 12 44 16
49 11 5 -6 7 -12 4 -16z m-932 -19 c1 -14 -2 -25 -7 -25 -5 0 -9 14 -9 32 0
36 12 31 16 -7z m-674 -26 c54 -46 99 -129 69 -129 -13 0 -121 100 -121 112 0
5 -7 16 -15 24 -8 9 -15 20 -15 25 0 20 35 7 82 -32z m628 1 c0 -5 -4 -10 -10
-10 -5 0 -10 5 -10 10 0 6 5 10 10 10 6 0 10 -4 10 -10z m1420 0 c-8 -5 -24
-9 -35 -9 -16 1 -16 2 5 9 35 11 48 11 30 0z m1743 -38 c-3 -12 -12 -22 -20
-22 -11 0 -13 5 -8 18 4 9 10 25 13 36 7 27 23 -4 15 -32z m-2058 21 c13 -8 1
-12 -49 -17 -37 -4 -72 -4 -78 0 -5 4 -14 1 -18 -5 -5 -9 -10 -8 -20 4 -11 13
-9 15 16 15 16 0 34 4 41 8 15 10 87 6 108 -5z m-1900 -87 c28 -57 89 -114
240 -222 34 -24 42 -34 25 -29 -39 11 -111 55 -149 92 -19 18 -38 33 -43 33
-4 0 -8 6 -8 13 0 7 -8 17 -18 23 -25 16 -142 171 -134 178 8 9 69 -52 87 -88z
m1963 68 c-9 -9 -21 -13 -27 -10 -19 12 -12 22 16 24 25 2 26 1 11 -14z m170
2 c-20 -6 -40 -14 -44 -18 -4 -5 -20 -8 -34 -8 -15 0 -33 -7 -40 -15 -7 -9
-29 -15 -52 -15 -36 0 -38 -1 -23 -16 13 -13 21 -14 38 -6 12 6 33 11 47 12
14 0 50 2 80 4 30 3 46 2 35 -1 -11 -3 -24 -9 -30 -13 -9 -7 -59 -22 -78 -24
-4 -1 -11 -6 -15 -12 -12 -18 -53 -24 -59 -8 -3 8 -11 14 -19 14 -8 0 -14 5
-14 11 0 6 -9 8 -22 3 -33 -10 -128 -13 -128 -4 0 4 15 10 33 13 49 8 104 25
87 27 -26 2 30 23 130 46 104 24 174 31 108 10z m-1891 -28 c-3 -8 -6 -5 -6 6
-1 11 2 17 5 13 3 -3 4 -12 1 -19z m138 -38 c-17 -27 -40 8 -29 43 6 19 7 19
21 -6 8 -15 11 -32 8 -37z m65 40 c0 -5 -4 -10 -10 -10 -5 0 -10 5 -10 10 0 6
5 10 10 10 6 0 10 -4 10 -10z m3237 -26 l38 -36 -37 -33 c-21 -17 -56 -39 -79
-48 l-41 -16 6 31 c3 17 13 45 21 61 8 17 15 38 15 47 0 42 29 39 77 -6z
m-3387 6 c0 -11 6 -19 13 -17 6 1 13 -10 15 -25 2 -20 7 -25 19 -21 12 5 14 1
8 -17 -5 -15 -4 -20 4 -16 6 4 11 2 11 -4 0 -6 11 -16 25 -22 14 -6 25 -18 25
-26 0 -8 8 -21 17 -28 38 -27 0 -26 -53 1 -62 32 -123 85 -99 85 19 0 19 15
-1 45 -9 14 -13 33 -9 45 8 26 25 26 25 0z m1580 16 c0 -2 -7 -6 -15 -10 -8
-3 -15 -1 -15 4 0 6 7 10 15 10 8 0 15 -2 15 -4z m340 0 c0 -2 -7 -7 -16 -10
-8 -3 -12 -2 -9 4 6 10 25 14 25 6z m124 -11 c-22 -17 -34 -19 -34 -6 0 5 8
12 18 14 32 9 36 7 16 -8z m-509 -5 c4 -6 -14 -10 -47 -9 -42 1 -48 3 -28 9
36 12 68 12 75 0z m2117 -15 c-2 -14 -8 -25 -13 -25 -10 0 -12 34 -2 43 13 14
20 6 15 -18z m-4564 -11 c32 -9 70 -84 42 -84 -5 0 -10 6 -10 14 0 9 -7 12
-18 9 -21 -5 -67 40 -57 56 7 13 11 13 43 5z m4493 -25 c-2 -8 -7 -30 -11 -49
-6 -30 -70 -168 -111 -240 -21 -36 -48 -58 -106 -85 -29 -13 -72 -37 -95 -52
-59 -40 -124 -67 -142 -60 -10 4 -16 18 -16 36 0 25 -3 28 -22 24 -13 -3 -20
-3 -16 2 4 4 0 25 -9 47 -8 21 -13 41 -10 45 4 3 23 7 43 10 l36 4 -4 -39 c-2
-29 0 -38 9 -35 7 3 13 13 13 22 1 21 45 71 63 71 8 0 25 8 38 18 13 9 40 26
59 36 56 31 230 188 230 208 0 5 7 20 16 34 17 25 42 27 35 3z m-1701 3 c0
-11 -39 -12 -45 -1 -4 5 5 9 19 9 14 0 26 -4 26 -8z m64 -7 c-4 -8 -8 -15 -10
-15 -2 0 -4 7 -4 15 0 8 4 15 10 15 5 0 7 -7 4 -15z m-1789 -6 c10 -15 -1 -23
-20 -15 -9 3 -13 10 -10 16 8 13 22 13 30 -1z m1454 -37 c-5 -2 -17 -1 -27 3
-15 6 -15 8 3 15 12 4 23 3 27 -4 4 -6 3 -13 -3 -14z m1841 14 c0 -7 -10 -20
-22 -29 -13 -8 -39 -29 -58 -46 -19 -17 -51 -36 -70 -42 -19 -6 -42 -18 -51
-25 -19 -17 -119 -28 -119 -14 0 17 -20 11 -27 -7 -8 -20 -28 -43 -38 -43 -4
0 -5 11 -3 25 3 13 2 22 -2 20 -7 -5 -20 17 -20 34 0 10 76 8 86 -1 13 -14 44
-8 44 8 0 10 6 13 18 10 23 -8 95 21 87 34 -3 5 1 7 9 4 19 -7 71 20 90 48 9
12 16 19 16 15 0 -5 7 -1 16 7 19 20 44 21 44 2z m-1661 -17 c-27 -16 -1 -19
41 -4 52 18 61 19 54 1 -6 -16 -73 -38 -129 -43 -112 -9 -148 -8 -162 5 -8 8
-11 17 -8 20 3 4 10 0 16 -8 5 -10 12 -11 17 -5 7 10 15 12 94 22 26 3 53 12
59 19 6 8 16 11 21 8 6 -4 5 -10 -3 -15z m1255 -32 c-3 -9 -12 -17 -20 -17
-17 0 -19 37 -1 43 18 7 29 -7 21 -26z m-1480 -4 c3 -8 4 -19 1 -23 -7 -12
-73 -1 -115 18 l-35 17 45 5 c61 7 98 1 104 -17z m-1581 -18 c25 -35 7 -30
-21 6 -13 16 -18 27 -10 24 7 -3 21 -17 31 -30z m-923 -55 c0 -5 -6 -10 -13
-10 -13 0 -57 68 -57 86 1 12 70 -63 70 -76z m160 51 c3 -12 10 -21 15 -20 6
1 16 -10 23 -24 7 -14 30 -32 52 -41 22 -9 39 -21 38 -27 -2 -6 4 -14 12 -18
8 -5 25 -13 37 -19 30 -16 32 -15 25 10 -5 21 -5 21 21 2 27 -20 34 -34 17
-34 -5 0 -10 -5 -10 -11 0 -6 8 -8 19 -4 11 3 23 0 28 -7 4 -7 30 -24 57 -38
59 -29 71 -50 29 -50 -46 0 -193 55 -193 73 0 4 -7 7 -15 7 -9 0 -26 11 -38
24 -12 13 -32 26 -43 30 -12 4 -29 15 -39 26 -10 11 -22 20 -27 20 -17 0 -73
62 -61 67 7 2 9 11 7 18 -6 16 16 46 31 41 5 -1 12 -13 15 -25z m3690 17 c0
-19 -50 -78 -66 -78 -10 0 -5 13 18 45 33 44 48 55 48 33z m160 -28 c0 -5 -7
-10 -16 -10 -8 0 -12 5 -9 10 3 6 10 10 16 10 5 0 9 -4 9 -10z m-2189 -40 c5
0 9 -13 9 -30 0 -16 -4 -30 -10 -30 -5 0 -9 6 -7 13 1 6 -3 11 -10 10 -8 -2
-11 10 -8 35 4 47 7 53 12 25 2 -13 9 -23 14 -23z m1409 4 c0 -15 -103 -104
-126 -110 -36 -9 -30 1 24 38 26 17 55 42 65 55 18 22 37 31 37 17z m1040 -23
c-6 -12 -15 -21 -21 -21 -5 0 -22 -11 -37 -25 -15 -14 -35 -25 -45 -25 -10 0
-15 -4 -12 -10 3 -5 1 -10 -5 -10 -20 0 -23 30 -5 50 10 11 33 25 51 32 19 7
34 15 34 19 0 7 41 17 48 13 2 -1 -1 -12 -8 -23z m-4220 -33 c0 -15 -28 -9
-34 8 -11 30 -6 37 14 19 11 -10 20 -22 20 -27z m3795 12 c-3 -5 -11 -10 -16
-10 -6 0 -7 5 -4 10 3 6 11 10 16 10 6 0 7 -4 4 -10z m-35 -9 c0 -9 -52 -51
-64 -51 -15 0 -4 30 16 44 25 18 48 21 48 7z m-3700 -36 c0 -8 9 -19 20 -25
28 -15 26 -33 -2 -24 -50 15 -79 64 -38 64 11 0 20 -7 20 -15z m3767 -8 c-3
-7 1 -21 9 -32 26 -35 18 -59 -26 -73 -22 -6 -46 -12 -53 -12 -17 0 -67 42
-67 56 0 12 107 73 129 74 7 0 11 -6 8 -13z m-887 -10 c-14 -7 -34 -22 -45
-34 -21 -24 -75 -42 -75 -26 0 12 109 73 130 72 8 0 4 -6 -10 -12z m226 -63
c-58 -68 -141 -132 -154 -120 -7 8 59 69 101 91 15 9 27 20 27 25 0 12 72 81
78 75 3 -2 -21 -35 -52 -71z m334 51 c10 -13 9 -15 -9 -15 -12 0 -21 6 -21 15
0 8 4 15 9 15 5 0 14 -7 21 -15z m560 5 c0 -5 -13 -16 -30 -25 -33 -17 -36
-14 -18 15 13 20 48 28 48 10z m-3445 -18 c-3 -3 -11 0 -18 7 -9 10 -8 11 6 5
10 -3 15 -9 12 -12z m670 -2 c-3 -5 -12 -10 -18 -10 -7 0 -6 4 3 10 19 12 23
12 15 0z m2675 -4 c0 -15 -18 -31 -26 -23 -7 7 7 37 17 37 5 0 9 -6 9 -14z
m-1640 -20 c0 -2 -7 -7 -16 -10 -8 -3 -12 -2 -9 4 6 10 25 14 25 6z m684 -20
c-3 -9 -12 -16 -20 -16 -11 0 -10 4 3 20 19 22 26 21 17 -4z m-2294 4 c24 -15
7 -19 -20 -5 -15 8 -19 14 -10 14 8 1 22 -3 30 -9z m1908 -2 c-3 -7 -17 -14
-31 -15 -33 -2 -35 5 -4 17 31 12 39 12 35 -2z m-88 -29 c0 -6 -25 -19 -36
-19 -2 0 -4 6 -4 13 0 7 9 13 20 13 11 0 20 -3 20 -7z m415 1 c-3 -5 -10 -10
-16 -10 -5 0 -9 5 -9 10 0 6 7 10 16 10 8 0 12 -4 9 -10z m-225 -5 c0 -6 -57
-35 -70 -35 -22 0 -8 16 23 27 40 13 47 14 47 8z m85 -5 c-3 -5 -12 -10 -18
-10 -7 0 -6 4 3 10 19 12 23 12 15 0z m965 -19 c0 -16 -13 -20 -31 -10 -27 14
-23 27 6 21 14 -2 25 -8 25 -11z m-520 1 c0 -14 -32 -40 -65 -52 -29 -11 -28
-10 10 24 40 36 55 43 55 28z m644 -34 c10 -39 7 -48 -16 -48 -67 1 -94 31
-50 54 39 21 59 19 66 -6z m-3330 -26 c-7 -26 -24 -30 -24 -4 0 9 -4 13 -8 7
-4 -5 -13 -10 -19 -11 -32 -3 -37 -6 -18 -14 11 -5 32 -9 46 -9 15 -1 30 -8
33 -17 4 -11 10 -13 19 -7 14 11 53 10 80 -1 9 -5 24 -6 32 -2 8 3 21 -2 30
-10 8 -8 19 -13 25 -9 5 3 20 0 32 -7 13 -7 28 -11 34 -10 20 4 64 -17 64 -30
0 -7 -4 -19 -9 -27 -8 -12 -13 -12 -35 3 -23 14 -26 14 -26 1 0 -21 -83 -21
-100 0 -7 8 -18 15 -25 15 -16 0 -205 59 -227 71 -10 5 -24 9 -31 9 -21 0 -78
31 -83 45 -3 7 -15 16 -27 19 -36 9 -14 15 25 7 20 -5 42 -5 48 -1 7 4 44 6
81 3 53 -4 69 -2 69 8 0 8 3 10 10 3 5 -5 7 -19 4 -32z m2236 18 c0 -5 -4 -10
-10 -10 -5 0 -10 5 -10 10 0 6 5 10 10 10 6 0 10 -4 10 -10z m-835 -10 c3 -5
3 -15 -1 -21 -6 -11 -23 6 -24 24 0 10 18 9 25 -3z m-918 -6 c-3 -3 -12 -4
-19 -1 -8 3 -5 6 6 6 11 1 17 -2 13 -5z m-447 -14 c0 -5 -2 -10 -4 -10 -3 0
-8 5 -11 10 -3 6 -1 10 4 10 6 0 11 -4 11 -10z m3150 -20 c0 -5 -2 -10 -4 -10
-3 0 -8 5 -11 10 -3 6 -1 10 4 10 6 0 11 -4 11 -10z m-1785 -48 c-8 -8 -25 10
-19 20 4 6 9 5 15 -3 4 -7 6 -15 4 -17z m795 14 c0 -20 -108 -34 -163 -20 -20
4 -33 1 -47 -11 -10 -9 -29 -15 -42 -13 l-23 3 27 18 c18 13 49 19 97 21 39 1
74 5 78 9 13 13 73 8 73 -7z m138 -3 c2 -8 -5 -13 -17 -13 -12 0 -21 -4 -21
-10 0 -5 -7 -10 -15 -10 -9 0 -27 -7 -40 -16 -13 -9 -29 -13 -35 -9 -5 3 -10
2 -10 -3 0 -5 -10 -12 -23 -14 -21 -4 -23 -2 -13 19 12 26 19 28 47 12 18 -9
19 -7 13 15 -5 21 -2 26 18 30 12 3 32 7 43 10 30 6 48 2 53 -11z m32 7 c0 -5
-4 -10 -10 -10 -5 0 -10 5 -10 10 0 6 5 10 10 10 6 0 10 -4 10 -10z m-1876
-25 c3 -8 2 -15 -3 -15 -5 0 -14 7 -21 15 -10 12 -10 15 3 15 8 0 17 -7 21
-15z m2043 9 c-3 -3 -12 -4 -19 -1 -8 3 -5 6 6 6 11 1 17 -2 13 -5z m93 -19
c0 -9 -9 -15 -25 -15 -14 0 -25 -4 -25 -9 0 -5 -13 -11 -29 -14 -17 -4 -32
-14 -36 -26 -7 -23 -29 -34 -72 -36 -17 -1 -52 -12 -76 -23 -65 -31 -97 -37
-97 -20 0 12 133 78 157 78 4 0 31 12 58 26 44 23 115 50 138 53 4 1 7 -6 7
-14z m664 -6 c-8 -14 -24 -10 -24 6 0 9 6 12 15 9 8 -4 12 -10 9 -15z m72 -6
c-10 -10 -19 5 -10 18 6 11 8 11 12 0 2 -7 1 -15 -2 -18z m98 -16 c11 -11 11
-16 0 -31 -17 -23 -38 -12 -24 13 5 10 6 21 3 25 -3 3 -3 6 1 6 4 0 13 -6 20
-13z m-1345 -6 c12 -8 8 -11 -15 -16 -16 -4 -39 -10 -51 -15 -17 -7 -21 -5
-19 8 3 14 15 20 66 31 3 0 12 -3 19 -8z m-1979 -21 c0 -5 -5 -10 -11 -10 -5
0 -7 5 -4 10 3 6 8 10 11 10 2 0 4 -4 4 -10z m1868 -7 c2 -9 -8 -13 -33 -13
-33 0 -36 2 -25 15 15 18 51 16 58 -2z m298 2 c-4 -12 0 -14 22 -9 l27 6 -25
-21 c-14 -11 -30 -21 -36 -21 -15 0 -111 -49 -99 -50 19 -1 -29 -30 -51 -30
-13 0 -29 -7 -37 -15 -19 -19 -98 -25 -104 -7 -3 6 3 12 12 12 9 0 14 4 10 9
-3 6 4 15 16 22 20 10 21 9 16 -10 -4 -18 -3 -20 9 -10 7 6 11 15 8 20 -3 5 1
9 10 9 8 0 16 -6 19 -12 4 -10 7 -10 18 0 9 9 10 12 1 12 -7 0 -12 5 -12 10 0
6 7 10 15 10 8 0 15 -4 15 -10 0 -5 5 -10 11 -10 6 0 9 7 5 15 -3 9 0 15 8 15
8 0 26 6 40 14 25 13 25 14 6 19 -11 3 -20 2 -20 -3 0 -4 -18 -10 -39 -12 -38
-3 -39 -2 -24 14 9 10 25 17 37 17 11 0 41 6 66 14 60 21 84 21 76 2z m844
-39 c-6 -20 -20 -42 -29 -48 -10 -7 -21 -27 -25 -45 -4 -17 -14 -34 -22 -37
-10 -4 -13 -13 -9 -25 4 -14 0 -21 -15 -26 -12 -4 -20 -15 -20 -29 0 -13 -13
-43 -30 -67 -16 -24 -25 -45 -20 -47 6 -2 6 -10 0 -21 -16 -30 1 -32 37 -5 34
26 52 27 39 2 -33 -65 -45 -74 -165 -135 -41 -21 -76 -46 -79 -56 -3 -14 -7
-15 -19 -6 -11 9 -16 8 -27 -6 -7 -10 -18 -15 -24 -11 -5 3 -12 0 -15 -6 -2
-7 -8 -9 -13 -5 -5 5 -1 14 9 21 9 7 17 17 17 21 0 4 -7 2 -15 -5 -8 -6 -30
-16 -50 -20 -28 -6 -35 -5 -35 7 0 11 -7 13 -30 8 -24 -5 -30 -3 -30 10 0 9
-9 19 -20 22 -11 3 -17 9 -14 14 10 16 32 9 37 -11 3 -11 10 -20 16 -20 14 0
65 69 57 78 -4 4 -12 -1 -17 -11 -9 -15 -59 -25 -59 -11 0 17 30 55 97 121 42
41 72 77 68 81 -3 4 -13 -2 -21 -13 -12 -16 -16 -17 -24 -6 -14 24 -78 -36
-79 -74 -1 -23 -9 -35 -30 -48 l-28 -17 2 41 c2 36 10 49 66 103 35 35 78 79
94 98 42 48 66 60 88 43 15 -11 16 -15 5 -26 -33 -34 -69 -89 -59 -89 6 0 15
8 18 18 6 15 35 45 88 90 8 6 18 12 24 12 5 0 12 7 15 16 3 8 10 13 15 9 5 -3
12 -1 16 5 4 6 10 8 15 5 13 -8 -11 -57 -26 -51 -14 6 -47 -28 -37 -38 4 -4
-2 -9 -13 -12 -10 -3 -27 -15 -37 -27 -10 -12 -29 -35 -42 -52 -13 -16 -22
-32 -19 -35 3 -3 11 2 17 10 7 8 27 23 45 33 37 21 61 14 39 -11 -18 -22 -29
-52 -18 -52 4 0 17 11 27 25 10 14 23 25 29 25 5 0 32 27 58 60 27 33 53 60
58 60 5 0 9 7 9 15 0 9 8 28 18 43 10 15 23 36 30 47 67 109 84 125 62 61z
m-1372 27 c-10 -2 -26 -2 -35 0 -10 3 -2 5 17 5 19 0 27 -2 18 -5z m782 -2 c0
-6 -4 -13 -10 -16 -5 -3 -10 1 -10 9 0 9 5 16 10 16 6 0 10 -4 10 -9z m838
-28 c-5 -25 -28 -28 -28 -4 0 12 6 21 16 21 9 0 14 -7 12 -17z m-3038 -13 c0
-5 -5 -12 -10 -15 -6 -4 -8 -15 -5 -26 4 -11 2 -19 -4 -19 -6 0 -11 18 -11 40
0 31 3 38 15 34 8 -4 15 -10 15 -14z m2127 -17 c4 -10 -37 -26 -45 -18 -3 3 1
12 8 20 14 17 31 16 37 -2z m-475 -15 c-9 -9 -15 -9 -24 0 -9 9 -7 12 12 12
19 0 21 -3 12 -12z m243 2 c3 -5 1 -10 -4 -10 -6 0 -11 5 -11 10 0 6 2 10 4
10 3 0 8 -4 11 -10z m763 -58 c-7 -11 -30 -39 -51 -64 -20 -24 -44 -53 -52
-64 -8 -10 -15 -14 -15 -7 0 7 13 27 29 45 15 18 31 43 35 55 4 12 16 25 27
28 10 4 19 11 19 16 0 5 5 9 11 9 6 0 5 -7 -3 -18z m412 -64 c0 -10 -6 -18
-14 -18 -17 0 -38 54 -29 76 4 12 10 9 24 -13 11 -15 19 -36 19 -45z m-1440
52 c0 -5 -12 -10 -26 -10 -14 0 -23 4 -19 10 3 6 15 10 26 10 10 0 19 -4 19
-10z m862 -22 c-6 -6 -16 -7 -23 -3 -9 6 -7 12 7 22 21 15 34 -1 16 -19z
m-949 15 c-7 -2 -19 -2 -25 0 -7 3 -2 5 12 5 14 0 19 -2 13 -5z m787 -13 c-6
-11 -15 -20 -21 -20 -5 0 -14 -11 -19 -25 -10 -26 -30 -34 -30 -12 1 16 19 38
50 59 32 22 33 22 20 -2z m-158 -38 c-6 -2 -9 -9 -6 -15 2 -7 -7 -28 -21 -47
-14 -19 -25 -40 -25 -47 0 -7 -4 -13 -10 -13 -5 0 -12 -11 -16 -25 -3 -14 -10
-22 -15 -19 -11 6 -89 -68 -89 -84 0 -6 -15 -21 -32 -34 -47 -33 -57 -41 -81
-64 -12 -12 -32 -26 -44 -33 -19 -10 -23 -9 -23 4 0 8 7 15 15 15 8 0 15 7 15
15 0 8 4 15 8 15 12 0 133 123 162 164 34 50 60 78 90 97 14 9 32 29 40 45 23
47 34 58 39 43 2 -7 -1 -15 -7 -17z m-212 4 c0 -8 -4 -18 -10 -21 -5 -3 -10 3
-10 14 0 12 5 21 10 21 6 0 10 -6 10 -14z m363 -21 c-3 -9 -8 -14 -10 -11 -3
3 -2 9 2 15 9 16 15 13 8 -4z m499 -10 c-5 -29 -32 -34 -32 -7 0 22 8 32 25
32 8 0 10 -10 7 -25z m158 -51 c0 -5 -6 -18 -13 -28 -11 -16 -15 -14 -34 23
l-21 40 21 14 c20 14 23 13 34 -11 7 -15 12 -32 13 -38z m-764 -9 c-27 -25
-51 -43 -54 -41 -6 7 18 46 28 46 6 0 10 6 10 14 0 13 18 20 55 24 6 1 -12
-19 -39 -43z m539 -34 c-3 -6 -11 -11 -17 -11 -6 0 -6 6 2 15 14 17 26 13 15
-4z m-1618 -13 c-3 -8 -6 -5 -6 6 -1 11 2 17 5 13 3 -3 4 -12 1 -19z m813 2
c0 -5 -5 -10 -11 -10 -5 0 -7 5 -4 10 3 6 8 10 11 10 2 0 4 -4 4 -10z m975
-50 c-2 -17 -13 -42 -24 -55 -16 -21 -20 -23 -25 -9 -4 9 0 27 9 40 8 13 15
30 15 39 0 8 6 15 14 15 10 0 13 -9 11 -30z m-737 -32 c-2 -6 -10 -14 -16 -16
-7 -2 -10 2 -6 12 7 18 28 22 22 4z m659 -75 c-9 -9 -19 -14 -23 -11 -10 10 6
28 24 28 15 0 15 -1 -1 -17z m-137 -38 c0 -8 -7 -15 -15 -15 -8 0 -15 -4 -15
-10 0 -5 -7 -10 -15 -10 -7 0 -18 -6 -22 -14 -10 -17 -53 -39 -61 -32 -3 4 3
13 14 21 10 8 36 28 58 45 43 34 56 37 56 15z m-1613 -17 c-3 -8 -6 -5 -6 6
-1 11 2 17 5 13 3 -3 4 -12 1 -19z m1393 -39 c0 -6 -4 -7 -10 -4 -5 3 -10 11
-10 16 0 6 5 7 10 4 6 -3 10 -11 10 -16z m70 6 c0 -6 -47 -55 -52 -55 -2 0 -3
14 -3 30 0 26 4 30 28 30 15 0 27 -2 27 -5z m-225 -25 c-4 -6 -10 -8 -14 -5
-5 2 -16 -4 -26 -15 -10 -11 -24 -20 -32 -20 -8 0 -27 -10 -42 -21 -16 -12
-35 -19 -43 -16 -9 4 -7 6 5 6 9 1 17 7 17 15 0 13 19 26 49 32 8 1 21 10 30
18 17 18 66 22 56 6z m-785 -150 c0 -5 -2 -10 -4 -10 -3 0 -8 5 -11 10 -3 6
-1 10 4 10 6 0 11 -4 11 -10z m-563 -22 c-3 -8 -6 -5 -6 6 -1 11 2 17 5 13 3
-3 4 -12 1 -19z m1121 -161 c6 -5 12 -16 12 -24 0 -8 -6 -13 -12 -10 -7 2 -13
10 -13 18 0 8 -10 14 -24 14 -13 0 -26 5 -28 11 -4 13 45 7 65 -9z m202 -34
c0 -24 -18 -22 -35 3 -14 21 -14 28 -4 35 13 8 38 -16 39 -38z m-980 21 c0 -8
-5 -12 -10 -9 -6 4 -8 11 -5 16 9 14 15 11 15 -7z m12 -66 c-9 -9 -12 -7 -12
12 0 19 3 21 12 12 9 -9 9 -15 0 -24z m28 -148 c0 -5 -8 -10 -17 -10 -15 0
-16 2 -3 10 19 12 20 12 20 0z m150 -294 c0 -5 -9 -1 -20 9 -11 10 -20 24 -20
32 0 7 -4 13 -10 13 -5 0 -10 6 -10 13 1 13 59 -52 60 -67z"/>
<path d="M4010 7096 c0 -2 8 -10 18 -17 15 -13 16 -12 3 4 -13 16 -21 21 -21
13z"/>
<path d="M4000 7030 c6 -11 16 -20 22 -20 6 0 3 9 -7 20 -10 11 -20 20 -22 20
-2 0 1 -9 7 -20z"/>
<path d="M3579 6786 c8 -9 19 -16 27 -16 7 0 17 -7 22 -16 5 -9 14 -14 20 -10
16 10 -18 41 -53 50 -25 6 -27 5 -16 -8z"/>
<path d="M3665 6510 c3 -5 11 -10 16 -10 6 0 7 5 4 10 -3 6 -11 10 -16 10 -6
0 -7 -4 -4 -10z"/>
<path d="M4060 6386 c0 -2 7 -6 15 -10 8 -3 15 -1 15 4 0 6 -7 10 -15 10 -8 0
-15 -2 -15 -4z"/>
<path d="M2848 6493 c7 -3 16 -2 19 1 4 3 -2 6 -13 5 -11 0 -14 -3 -6 -6z"/>
<path d="M3030 6440 c0 -5 7 -10 15 -10 8 0 15 5 15 10 0 6 -7 10 -15 10 -8 0
-15 -4 -15 -10z"/>
<path d="M3120 6421 c0 -5 8 -11 18 -15 9 -3 23 -9 30 -12 6 -3 12 -2 12 4 0
5 -11 14 -25 20 -31 14 -35 15 -35 3z"/>
<path d="M3200 6386 c0 -2 7 -6 15 -10 8 -3 15 -1 15 4 0 6 -7 10 -15 10 -8 0
-15 -2 -15 -4z"/>
<path d="M3055 6330 c-3 -5 -2 -10 4 -10 5 0 13 5 16 10 3 6 2 10 -4 10 -5 0
-13 -4 -16 -10z"/>
<path d="M3050 6250 c0 -5 15 -10 33 -9 27 0 29 2 12 9 -28 12 -45 12 -45 0z"/>
<path d="M3125 6230 c3 -5 10 -10 16 -10 5 0 9 5 9 10 0 6 -7 10 -16 10 -8 0
-12 -4 -9 -10z"/>
<path d="M3505 6160 c-3 -5 1 -10 9 -10 9 0 16 5 16 10 0 6 -4 10 -9 10 -6 0
-13 -4 -16 -10z"/>
<path d="M3602 6158 c5 -15 28 -23 28 -10 0 5 -7 13 -16 16 -10 4 -14 1 -12
-6z"/>
<path d="M3290 6140 c0 -5 5 -10 11 -10 5 0 7 5 4 10 -3 6 -8 10 -11 10 -2 0
-4 -4 -4 -10z"/>
<path d="M4060 6106 c9 -8 34 -17 57 -19 24 -2 48 -9 55 -14 7 -6 25 -13 41
-17 15 -3 27 -11 27 -16 0 -6 7 -10 15 -10 8 0 29 -9 47 -20 18 -11 39 -20 46
-20 21 0 13 20 -13 30 -38 14 -118 50 -137 60 -16 9 -64 23 -128 37 -23 5 -24
4 -10 -11z"/>
<path d="M4370 5990 c0 -5 5 -10 11 -10 5 0 7 5 4 10 -3 6 -8 10 -11 10 -2 0
-4 -4 -4 -10z"/>
<path d="M4445 5890 c-3 -5 -1 -10 4 -10 6 0 11 5 11 10 0 6 -2 10 -4 10 -3 0
-8 -4 -11 -10z"/>
<path d="M4388 5866 c-28 -21 -21 -28 12 -11 17 9 30 18 30 20 0 10 -25 4 -42
-9z"/>
<path d="M4341 5833 c7 -10 15 -20 16 -22 2 -2 3 5 3 17 0 14 -6 22 -16 22
-14 0 -15 -3 -3 -17z"/>
<path d="M3430 5869 c0 -5 5 -7 10 -4 6 3 10 8 10 11 0 2 -4 4 -10 4 -5 0 -10
-5 -10 -11z"/>
<path d="M5822 5298 c-7 -7 -12 -19 -12 -27 0 -11 5 -9 20 7 11 12 20 24 20
27 0 9 -16 5 -28 -7z"/>
<path d="M5774 5219 c-3 -6 -1 -16 5 -22 8 -8 11 -5 11 11 0 24 -5 28 -16 11z"/>
<path d="M1875 4561 c-3 -5 -1 -12 5 -16 5 -3 10 1 10 9 0 18 -6 21 -15 7z"/>
<path d="M1945 4500 c3 -5 10 -10 16 -10 5 0 9 5 9 10 0 6 -7 10 -16 10 -8 0
-12 -4 -9 -10z"/>
<path d="M2000 4490 c0 -5 5 -10 10 -10 6 0 10 5 10 10 0 6 -4 10 -10 10 -5 0
-10 -4 -10 -10z"/>
<path d="M5105 3669 c-4 -6 -5 -12 -2 -15 2 -3 7 2 10 11 7 17 1 20 -8 4z"/>
<path d="M5024 3639 c-3 -6 -1 -16 5 -22 8 -8 11 -5 11 11 0 24 -5 28 -16 11z"/>
<path d="M5065 3640 c-3 -6 1 -7 9 -4 18 7 21 14 7 14 -6 0 -13 -4 -16 -10z"/>
<path d="M5015 3550 c-4 -6 3 -10 14 -10 25 0 27 6 6 13 -8 4 -17 2 -20 -3z"/>
<path d="M3931 7513 c-13 -28 -13 -28 8 -9 22 20 27 36 13 36 -5 0 -14 -12
-21 -27z"/>
<path d="M4419 7497 c14 -15 34 -27 46 -27 11 0 26 -5 33 -12 15 -15 24 -6 16
15 -3 9 -24 22 -46 27 -21 6 -47 14 -56 17 -12 4 -10 -1 7 -20z"/>
<path d="M4310 7476 c0 -2 8 -10 18 -17 15 -13 16 -12 3 4 -13 16 -21 21 -21
13z"/>
<path d="M4350 7429 c0 -5 5 -7 10 -4 6 3 10 8 10 11 0 2 -4 4 -10 4 -5 0 -10
-5 -10 -11z"/>
<path d="M4390 7351 c0 -5 5 -13 10 -16 6 -3 10 -2 10 4 0 5 -4 13 -10 16 -5
3 -10 2 -10 -4z"/>
<path d="M4980 7116 c0 -9 5 -16 10 -16 6 0 10 4 10 9 0 6 -4 13 -10 16 -5 3
-10 -1 -10 -9z"/>
<path d="M5010 7100 c0 -5 5 -10 11 -10 5 0 7 5 4 10 -3 6 -8 10 -11 10 -2 0
-4 -4 -4 -10z"/>
<path d="M5040 7070 c0 -5 5 -10 10 -10 6 0 10 5 10 10 0 6 -4 10 -10 10 -5 0
-10 -4 -10 -10z"/>
<path d="M5170 7005 c0 -9 6 -23 14 -31 9 -9 17 -10 21 -4 3 5 1 10 -4 10 -6
0 -11 6 -11 14 0 8 -4 18 -10 21 -5 3 -10 -1 -10 -10z"/>
<path d="M4770 6998 c0 -9 5 -20 10 -23 13 -8 13 5 0 25 -8 13 -10 13 -10 -2z"/>
<path d="M4905 6920 c3 -5 8 -10 11 -10 2 0 4 5 4 10 0 6 -5 10 -11 10 -5 0
-7 -4 -4 -10z"/>
<path d="M4920 6894 c0 -3 14 -22 30 -41 30 -33 40 -30 20 7 -10 20 -50 46
-50 34z"/>
<path d="M5695 6485 c-3 -14 -7 -35 -10 -48 -5 -28 4 -68 16 -62 4 3 6 12 2
20 -3 8 -1 15 5 15 6 0 12 -5 14 -11 2 -7 17 -8 41 -4 l37 7 -25 20 c-14 11
-25 27 -25 37 0 17 -29 51 -43 51 -4 0 -9 -11 -12 -25z"/>
<path d="M5998 6393 c7 -3 16 -2 19 1 4 3 -2 6 -13 5 -11 0 -14 -3 -6 -6z"/>
<path d="M5933 6373 c9 -9 19 -14 23 -11 10 10 -6 28 -24 28 -15 0 -15 -1 1
-17z"/>
<path d="M5722 6340 c-16 -26 -15 -29 7 -23 10 3 18 11 17 19 -3 23 -11 24
-24 4z"/>
<path d="M6130 6330 c0 -5 5 -10 10 -10 6 0 10 5 10 10 0 6 -4 10 -10 10 -5 0
-10 -4 -10 -10z"/>
<path d="M5790 6294 c0 -14 -5 -35 -11 -46 -13 -24 7 -44 26 -25 15 16 14 85
-2 91 -9 4 -13 -3 -13 -20z"/>
<path d="M6011 6264 c0 -11 3 -14 6 -6 3 7 2 16 -1 19 -3 4 -6 -2 -5 -13z"/>
<path d="M6258 6033 c7 -3 16 -2 19 1 4 3 -2 6 -13 5 -11 0 -14 -3 -6 -6z"/>
<path d="M6220 6020 c0 -5 7 -10 16 -10 8 0 12 5 9 10 -3 6 -10 10 -16 10 -5
0 -9 -4 -9 -10z"/>
<path d="M5716 5926 c-13 -20 -13 -24 -2 -20 8 3 17 13 20 21 10 26 0 25 -18
-1z"/>
<path d="M6670 5680 c0 -6 3 -10 8 -10 8 -1 129 -34 157 -45 17 -6 17 -4 -3
14 -32 28 -162 61 -162 41z"/>
<path d="M6566 5630 l-40 -18 45 3 c54 4 99 15 99 24 0 15 -66 9 -104 -9z"/>
<path d="M3290 4960 c-12 -8 -10 -10 8 -10 13 0 20 4 17 10 -7 12 -6 12 -25 0z"/>
<path d="M3140 4773 c0 -5 14 -21 31 -38 l31 -30 -18 38 c-15 32 -45 52 -44
30z"/>
<path d="M3208 4704 c-4 -3 1 -23 12 -44 19 -38 45 -57 55 -40 8 14 -6 90 -17
90 -6 0 -8 -7 -4 -15 7 -20 -14 -19 -28 1 -6 8 -15 12 -18 8z"/>
<path d="M1755 4331 c-3 -5 -1 -12 5 -16 5 -3 10 1 10 9 0 18 -6 21 -15 7z"/>
<path d="M1701 4304 c0 -11 3 -14 6 -6 3 7 2 16 -1 19 -3 4 -6 -2 -5 -13z"/>
<path d="M6500 4290 c-14 -11 -31 -20 -37 -20 -7 0 -13 -5 -13 -12 0 -6 -3 -9
-6 -5 -3 3 -28 -11 -55 -31 -26 -20 -75 -57 -109 -81 -33 -25 -60 -48 -60 -52
0 -12 71 2 120 23 43 19 160 122 160 142 0 5 7 18 17 28 23 26 13 30 -17 8z"/>
<path d="M3700 4156 c0 -31 6 -34 13 -6 3 11 1 23 -4 26 -5 3 -9 -6 -9 -20z"/>
<path d="M3182 4109 c-7 -28 -12 -59 -12 -69 0 -32 42 -130 56 -130 19 0 18
20 -2 48 -20 28 -25 86 -12 129 7 24 6 38 -5 53 -13 18 -14 16 -25 -31z"/>
<path d="M2924 4047 c3 -10 6 -23 6 -28 0 -5 5 -9 10 -9 14 0 12 13 -6 36 -14
17 -15 17 -10 1z"/>
<path d="M2950 3991 c0 -5 5 -13 10 -16 6 -3 10 -2 10 4 0 5 -4 13 -10 16 -5
3 -10 2 -10 -4z"/>
<path d="M1663 3943 c-22 -8 -14 -33 10 -33 13 0 29 -6 36 -12 10 -11 11 -9 5
7 -14 40 -26 49 -51 38z"/>
<path d="M1730 3914 c0 -8 5 -12 10 -9 6 4 8 11 5 16 -9 14 -15 11 -15 -7z"/>
<path d="M6070 3820 c-13 -8 -12 -10 3 -10 9 0 17 5 17 10 0 12 -1 12 -20 0z"/>
<path d="M1820 3775 c0 -8 5 -15 10 -15 6 0 10 7 10 15 0 8 -4 15 -10 15 -5 0
-10 -7 -10 -15z"/>
<path d="M1823 3715 c0 -22 2 -30 4 -17 2 12 2 30 0 40 -3 9 -5 -1 -4 -23z"/>
<path d="M5810 3595 c0 -8 5 -15 10 -15 6 0 10 7 10 15 0 8 -4 15 -10 15 -5 0
-10 -7 -10 -15z"/>
<path d="M3094 3530 c3 -19 7 -47 9 -62 2 -15 11 -36 22 -48 10 -11 15 -23 12
-27 -4 -3 -7 -2 -7 4 0 6 -6 13 -13 16 -17 6 -19 -26 -5 -61 17 -42 20 -173 4
-192 -7 -8 -18 -29 -25 -47 -7 -17 -21 -33 -31 -36 -13 -3 -17 0 -13 9 4 11
-2 13 -25 8 -17 -4 -32 -1 -36 5 -9 13 -26 15 -26 2 0 -5 8 -12 18 -15 16 -5
20 -37 13 -93 -2 -23 -61 -72 -78 -66 -11 4 -14 3 -9 -6 12 -19 -12 -67 -40
-80 -13 -6 -27 -17 -30 -25 -3 -8 -11 -13 -18 -10 -14 5 -52 -35 -59 -63 -4
-16 -5 -16 -6 2 -1 14 -11 5 -37 -33 -20 -30 -51 -63 -70 -74 -19 -11 -31 -24
-28 -29 3 -5 0 -9 -7 -9 -6 0 -9 8 -6 20 3 10 0 21 -6 23 -6 2 1 16 15 32 25
27 27 27 25 7 -1 -12 -7 -22 -14 -22 -7 0 -13 -4 -13 -10 0 -20 29 -10 36 13
3 12 13 30 22 40 14 16 13 17 -9 18 -13 0 -18 3 -11 6 6 2 10 9 6 14 -8 14
-24 1 -24 -20 0 -18 -44 -55 -65 -56 -5 0 -14 -9 -20 -21 -14 -29 -67 -94 -76
-94 -4 0 -10 8 -12 18 -4 16 -5 16 -6 0 0 -10 -7 -18 -13 -19 -7 -1 2 -5 20
-9 38 -9 85 10 105 41 12 20 37 26 37 10 0 -14 39 -9 44 5 3 7 14 10 24 7 14
-3 22 1 26 14 4 10 24 32 46 48 21 17 46 44 54 60 12 22 16 25 16 11 0 -25
-44 -83 -70 -91 -11 -3 -20 -14 -20 -23 1 -16 2 -16 14 1 16 21 26 22 26 2 0
-18 4 -19 31 -2 17 10 23 10 26 0 3 -7 9 -13 15 -13 6 0 8 6 6 13 -3 6 3 21
13 31 11 11 19 15 19 10 0 -6 -5 -15 -12 -22 -20 -20 21 -27 53 -8 25 15 29
15 37 1 7 -14 13 -11 36 19 15 20 31 34 35 32 4 -3 17 4 29 14 12 11 30 20 41
20 11 0 23 5 26 10 31 50 33 -67 4 -215 -11 -59 -18 -119 -14 -134 3 -14 6
-34 6 -43 0 -11 6 -15 15 -11 9 3 12 12 8 25 -3 11 0 27 9 36 19 23 46 124 51
192 2 30 7 67 11 81 4 17 2 30 -6 34 -7 5 -10 4 -6 -2 4 -6 0 -13 -8 -17 -19
-7 -19 -8 5 104 21 100 26 155 11 146 -5 -3 0 11 10 31 11 21 19 49 19 64 0
15 7 46 15 69 8 23 15 51 15 62 0 19 -1 19 -31 -2 -16 -12 -33 -19 -36 -16 -4
4 -10 53 -13 109 -7 99 -24 176 -58 262 -22 56 -36 68 -28 25z m26 -436 c0 -8
-4 -12 -10 -9 -5 3 -10 10 -10 16 0 5 5 9 10 9 6 0 10 -7 10 -16z m100 -3 c0
-6 -5 -13 -10 -16 -7 -5 -8 -11 -1 -19 14 -17 -7 -106 -25 -106 -15 0 -17 -8
-14 -52 2 -30 -17 -38 -27 -12 -5 13 -8 13 -15 2 -7 -9 -8 -7 -3 7 4 11 7 28
7 38 0 9 6 29 14 45 7 15 14 32 14 38 0 11 15 44 33 72 10 14 27 16 27 3z
m-120 -51 c0 -5 -4 -10 -10 -10 -5 0 -10 5 -10 10 0 6 5 10 10 10 6 0 10 -4
10 -10z m-40 -16 c0 -3 -5 -14 -10 -25 -7 -13 -8 -25 -1 -37 9 -14 11 -12 17
15 4 22 11 30 21 26 10 -4 12 -13 8 -32 -4 -14 -9 -42 -12 -61 -7 -47 -40
-100 -64 -100 -28 0 -23 14 18 49 21 18 33 35 28 39 -6 4 -16 19 -22 35 -7 15
-17 27 -23 27 -16 0 -12 31 7 52 16 17 33 24 33 12z m-47 -108 c-10 -12 -19
-23 -20 -25 -5 -7 -33 22 -33 34 0 18 42 35 58 22 10 -8 9 -14 -5 -31z m-112
-127 c-9 -22 -10 -22 -10 -3 -1 11 2 24 6 27 12 12 14 0 4 -24z m239 0 c0 -11
-4 -17 -10 -14 -5 3 -10 13 -10 21 0 8 5 14 10 14 6 0 10 -9 10 -21z m-100 2
c0 -6 -4 -13 -10 -16 -5 -3 -10 1 -10 9 0 9 5 16 10 16 6 0 10 -4 10 -9z m-36
-16 c-4 -8 -8 -15 -10 -15 -2 0 -4 7 -4 15 0 8 4 15 10 15 5 0 7 -7 4 -15z
m-419 -155 c3 -5 1 -10 -4 -10 -6 0 -11 5 -11 10 0 6 2 10 4 10 3 0 8 -4 11
-10z"/>
<path d="M1976 3422 c-7 -12 41 -30 55 -21 14 8 13 8 -36 24 -8 2 -16 1 -19
-3z"/>
<path d="M5367 3409 c7 -7 15 -10 18 -7 3 3 -2 9 -12 12 -14 6 -15 5 -6 -5z"/>
<path d="M5510 3366 c0 -8 -6 -17 -12 -19 -10 -4 -10 -6 -1 -6 7 -1 17 8 23
19 7 14 7 20 0 20 -5 0 -10 -6 -10 -14z"/>
<path d="M1972 3345 c-18 -15 -32 -31 -32 -36 0 -6 -9 -20 -20 -32 -26 -27
-36 -65 -22 -79 8 -8 17 -4 31 13 19 23 25 44 22 80 -1 9 6 22 16 30 15 12 16
12 10 -3 -3 -10 -2 -18 3 -18 6 0 10 9 10 19 0 11 5 21 12 23 6 2 9 10 7 17
-3 9 -14 5 -37 -14z"/>
<path d="M5457 3300 c-3 -11 -1 -23 4 -26 5 -3 9 -1 9 5 0 5 3 16 6 25 3 9 2
16 -4 16 -5 0 -12 -9 -15 -20z"/>
<path d="M4270 3270 c0 -5 5 -10 11 -10 5 0 7 5 4 10 -3 6 -8 10 -11 10 -2 0
-4 -4 -4 -10z"/>
<path d="M5419 3254 c-7 -9 -24 -20 -37 -25 -14 -5 -22 -12 -20 -15 8 -8 76
28 82 43 7 18 -9 16 -25 -3z"/>
<path d="M5220 3250 c0 -5 4 -10 9 -10 6 0 13 5 16 10 3 6 -1 10 -9 10 -9 0
-16 -4 -16 -10z"/>
<path d="M3660 3236 c0 -8 5 -18 10 -21 6 -3 10 1 10 9 0 8 -4 18 -10 21 -5 3
-10 -1 -10 -9z"/>
<path d="M3655 3201 c5 -9 2 -18 -7 -25 -16 -12 -34 -81 -18 -71 6 3 10 16 10
27 0 12 8 30 17 40 14 15 14 21 3 31 -10 10 -11 9 -5 -2z"/>
<path d="M1980 3140 c0 -5 -7 -10 -16 -10 -14 0 -14 -3 -4 -15 7 -8 16 -15 21
-15 5 0 9 7 9 15 0 8 5 15 11 15 5 0 7 5 4 10 -3 6 -10 10 -16 10 -5 0 -9 -4
-9 -10z"/>
<path d="M3037 3143 c-12 -12 -7 -33 8 -33 17 0 19 9 7 28 -5 7 -11 9 -15 5z"/>
<path d="M2030 3121 c0 -5 7 -14 15 -21 8 -7 15 -18 15 -25 0 -7 7 -15 15 -19
24 -9 18 28 -8 52 -25 23 -37 28 -37 13z"/>
<path d="M3773 3055 c-7 -8 -12 -27 -12 -42 1 -17 3 -21 6 -10 2 9 8 15 13 12
12 -8 33 23 26 40 -7 19 -17 19 -33 0z"/>
<path d="M2110 3011 c0 -5 5 -13 10 -16 6 -3 10 -2 10 4 0 5 -4 13 -10 16 -5
3 -10 2 -10 -4z"/>
<path d="M3777 2977 c-19 -29 -23 -52 -7 -42 6 3 7 -1 4 -9 -4 -9 -1 -16 6
-16 8 0 10 -8 6 -24 -4 -15 4 -42 23 -79 16 -32 25 -61 21 -68 -5 -7 -7 -25
-5 -40 5 -40 -9 -44 -37 -11 -32 39 -54 52 -39 23 6 -11 9 -33 6 -48 -4 -23
-4 -24 4 -8 5 11 10 14 10 8 1 -7 10 -13 20 -13 22 0 37 -30 20 -40 -8 -6 -8
-9 0 -14 6 -4 11 -2 11 4 0 6 5 8 11 5 6 -4 8 -13 5 -21 -4 -9 3 -18 17 -23
13 -5 39 -29 60 -54 62 -76 81 -98 108 -125 14 -15 32 -38 38 -50 7 -13 15
-21 18 -19 6 6 -15 46 -34 66 -8 7 -12 19 -10 25 3 7 -19 36 -49 66 -30 30
-54 59 -54 64 0 5 -17 26 -37 47 -62 63 -69 72 -55 77 7 2 12 14 12 27 0 13 5
27 10 30 17 10 11 42 -10 56 -15 10 -22 29 -26 69 -3 30 -8 62 -11 70 -4 8 -5
21 -4 28 1 6 -5 12 -14 12 -17 0 -20 17 -3 22 6 2 9 10 7 17 -3 9 -11 5 -22
-12z"/>
<path d="M3836 2978 c-3 -13 -1 -27 4 -32 7 -7 10 1 10 22 0 37 -5 41 -14 10z"/>
<path d="M3677 2973 c-4 -3 -7 -13 -7 -22 1 -13 3 -13 11 2 11 19 8 33 -4 20z"/>
<path d="M2860 2950 c-12 -23 2 -27 19 -6 8 9 8 16 2 20 -6 4 -15 -3 -21 -14z"/>
<path d="M2917 2963 c-12 -11 -8 -23 8 -23 8 0 15 7 15 15 0 16 -12 20 -23 8z"/>
<path d="M3623 2947 c-10 -21 -10 -33 1 -59 8 -18 12 -46 9 -61 -4 -20 -2 -27
8 -25 8 2 25 -19 40 -51 15 -30 35 -58 45 -64 19 -10 19 -10 0 11 -18 20 -16
52 2 52 5 0 9 7 9 15 0 8 -5 12 -10 8 -5 -3 -6 3 -2 16 8 25 -3 64 -16 56 -5
-4 -14 6 -20 22 l-11 28 -14 -30 c-8 -19 -13 -24 -14 -12 0 10 -8 29 -17 43
-13 20 -14 27 -4 34 7 4 11 16 9 26 -2 15 -5 13 -15 -9z"/>
<path d="M2824 2875 c11 -8 15 -19 11 -27 -6 -10 -5 -10 4 -2 15 14 3 44 -18
44 -14 -1 -14 -2 3 -15z"/>
<path d="M2721 2804 c0 -11 3 -14 6 -6 3 7 2 16 -1 19 -3 4 -6 -2 -5 -13z"/>
<path d="M4910 2800 c0 -5 5 -10 10 -10 6 0 10 5 10 10 0 6 -4 10 -10 10 -5 0
-10 -4 -10 -10z"/>
<path d="M2690 2770 c0 -5 5 -10 10 -10 6 0 10 5 10 10 0 6 -4 10 -10 10 -5 0
-10 -4 -10 -10z"/>
<path d="M4921 2754 c0 -11 3 -14 6 -6 3 7 2 16 -1 19 -3 4 -6 -2 -5 -13z"/>
<path d="M5330 2657 c0 -8 6 -17 13 -20 14 -5 68 -109 72 -141 7 -46 25 -130
30 -134 3 -3 5 20 5 51 0 62 12 74 29 27 5 -16 15 -30 20 -30 6 0 12 -10 12
-22 1 -18 2 -19 6 -5 3 11 -22 57 -63 120 -38 56 -71 104 -74 107 -3 3 -16 18
-28 34 -14 18 -22 23 -22 13z"/>
<path d="M2190 2650 c0 -16 23 -60 32 -60 11 0 10 27 -2 51 -11 20 -30 26 -30
9z"/>
<path d="M3691 2644 c0 -11 3 -14 6 -6 3 7 2 16 -1 19 -3 4 -6 -2 -5 -13z"/>
<path d="M3767 2556 c-20 -46 -23 -96 -5 -78 6 6 12 19 13 29 1 10 5 26 9 35
4 9 6 25 4 35 -3 13 -9 8 -21 -21z"/>
<path d="M2280 2570 c0 -5 5 -10 10 -10 6 0 10 5 10 10 0 6 -4 10 -10 10 -5 0
-10 -4 -10 -10z"/>
<path d="M2325 2560 c-3 -5 1 -10 9 -10 9 0 16 5 16 10 0 6 -4 10 -9 10 -6 0
-13 -4 -16 -10z"/>
<path d="M4150 2479 c0 -7 5 -29 12 -51 9 -29 9 -41 0 -50 -14 -14 -16 -114
-4 -122 5 -3 8 18 8 46 -1 33 4 53 12 55 15 6 16 74 0 108 -12 26 -28 34 -28
14z"/>
<path d="M4310 2446 c0 -2 8 -10 18 -17 15 -13 16 -12 3 4 -13 16 -21 21 -21
13z"/>
<path d="M4090 2431 c0 -5 5 -13 10 -16 6 -3 10 -2 10 4 0 5 -4 13 -10 16 -5
3 -10 2 -10 -4z"/>
<path d="M5034 2369 c-3 -6 -1 -16 5 -22 8 -8 11 -5 11 11 0 24 -5 28 -16 11z"/>
<path d="M4500 2344 c0 -7 27 -34 34 -34 3 0 19 -15 36 -32 16 -18 39 -42 50
-53 12 -12 22 -38 24 -64 2 -24 9 -47 14 -50 16 -11 32 -72 26 -100 -3 -14
-13 -41 -22 -59 -15 -29 -15 -34 -2 -42 8 -5 11 -12 7 -16 -3 -4 -14 -1 -22 6
-12 10 -19 10 -27 2 -9 -9 -7 -12 7 -12 24 0 44 -40 34 -67 -9 -26 -56 -36
-68 -15 -6 10 -10 11 -15 3 -4 -6 -16 -11 -27 -11 -11 0 -17 -5 -14 -10 4 -6
12 -10 18 -9 7 1 20 -1 30 -6 12 -5 32 -1 55 11 39 20 69 44 55 44 -4 1 4 7
19 15 23 13 27 21 24 50 -1 19 1 35 6 35 4 0 8 21 8 46 0 26 -4 43 -9 39 -6
-3 -9 11 -8 32 2 57 -23 135 -45 141 -11 3 -17 10 -14 18 3 8 -1 14 -10 14 -8
0 -19 11 -24 25 -5 14 -14 25 -20 25 -6 0 -8 -6 -4 -12 4 -7 -16 11 -46 40
-49 48 -70 61 -70 46z m178 -192 c6 -18 -15 -14 -22 4 -4 10 -1 14 6 12 6 -2
14 -10 16 -16z"/>
<path d="M5486 2309 c-8 -42 0 -50 9 -9 4 17 5 34 2 36 -2 3 -7 -10 -11 -27z"/>
<path d="M5050 2321 c0 -5 5 -13 10 -16 6 -3 10 -2 10 4 0 5 -4 13 -10 16 -5
3 -10 2 -10 -4z"/>
<path d="M4114 2217 c4 -24 2 -56 -4 -72 -9 -24 -9 -26 4 -16 19 16 36 6 36
-19 0 -10 5 -22 10 -25 6 -3 11 -21 11 -38 1 -31 2 -30 9 8 4 21 4 46 0 55
-15 30 -30 87 -30 112 0 22 -16 38 -37 38 -3 0 -2 -20 1 -43z"/>
<path d="M5430 2240 c0 -5 5 -10 11 -10 5 0 7 5 4 10 -3 6 -8 10 -11 10 -2 0
-4 -4 -4 -10z"/>
<path d="M4616 2187 c3 -10 9 -15 12 -12 3 3 0 11 -7 18 -10 9 -11 8 -5 -6z"/>
<path d="M5376 2168 l-19 -33 23 21 c12 12 21 27 19 33 -3 7 -13 -3 -23 -21z"/>
<path d="M5335 2119 c-11 -16 -1 -19 13 -3 7 8 8 14 3 14 -5 0 -13 -5 -16 -11z"/>
<path d="M4087 2103 c-4 -3 -7 -13 -7 -22 1 -13 3 -13 11 2 11 19 8 33 -4 20z"/>
<path d="M4025 2019 c-11 -16 -1 -19 13 -3 7 8 8 14 3 14 -5 0 -13 -5 -16 -11z"/>
<path d="M4176 1948 c-3 -13 -6 -41 -6 -64 0 -47 -24 -132 -51 -186 -11 -21
-15 -38 -10 -38 15 0 41 42 41 67 0 13 5 23 10 23 6 0 10 8 10 18 0 10 4 22
10 28 13 13 25 174 13 174 -6 0 -13 -10 -17 -22z"/>
<path d="M4517 1869 c7 -7 15 -10 18 -7 3 3 -2 9 -12 12 -14 6 -15 5 -6 -5z"/>
</g>
</svg>
